# This file uses centimeters as units for non-parametric coordinates.

mtllib HardChairUVd.mtl
g default
v 12.612583 0.000000 -21.387503
v -12.092258 0.000000 -21.387505
v -24.444674 0.000000 0.007508
v -12.092265 0.000000 21.402525
v 12.612576 0.000000 21.402529
v 24.964991 0.000000 0.007511
v 10.575641 58.456497 -17.430506
v 12.637425 52.756657 -21.415995
v -9.954331 58.477276 -17.397015
v -12.099262 52.718990 -21.407747
v -21.090317 57.394745 -1.429053
v -26.176851 53.868725 0.065918
v -9.947936 58.452164 17.452049
v -12.105186 52.716537 21.418392
v 10.611702 58.432552 17.388540
v 12.612576 52.700005 21.402529
v 22.998817 57.422913 -1.394842
v 28.186583 53.876026 0.092417
v 10.575641 84.282997 -17.430506
v 12.637425 89.868042 -21.415995
v -12.099262 89.830376 -21.407747
v -9.954331 84.303772 -17.397015
v 27.386147 58.940800 -5.665159
v -25.376413 58.998508 -5.701695
vt 0.772443 0.242364
vt 0.775377 0.396627
vt 0.355338 0.820516
vt 0.674059 0.100969
vt 0.682557 0.526721
vt 0.488005 0.432581
vt 0.480075 0.228052
vt 0.020740 0.823046
vt 0.022469 0.663168
vt 0.027561 0.504203
vt 0.354496 0.671868
vt 0.028235 0.345095
vt 0.372459 0.512907
vt 0.029059 0.185974
vt 0.367168 0.347890
vt 0.022762 0.984646
vt 0.368543 0.188413
vt 0.373292 0.990438
vt 0.548001 0.792612
vt 0.543974 0.684590
vt 0.553042 0.662177
vt 0.982764 0.210776
vt 0.408583 0.951194
vt 0.404809 0.552087
vt 0.982646 0.429144
vt 0.409099 0.210927
vt 0.421478 0.179302
vt 0.437835 0.487595
vt 0.419459 0.458690
vt 0.669607 0.591290
vt 0.029898 0.026720
vt 0.377816 0.018135
vt 0.420715 0.515040
vt 0.559589 0.814915
vt 0.429246 0.991553
vt 0.654461 0.033790
vn 0.359542 -0.675685 -0.643568
vn 0.728700 -0.684833 -0.000331
vn 0.358165 -0.676326 0.643662
vn -0.362392 -0.678974 0.638488
vn -0.730886 -0.682499 -0.000323
vn -0.363410 -0.678416 -0.638502
vn 0.014268 0.274095 0.961597
vn 0.136595 0.586550 0.798311
vn -0.136943 0.583404 0.800554
vn -0.016984 0.271344 0.962332
vn -0.267742 0.382247 0.884422
vn 0.333604 0.569920 0.750933
vn -0.348083 0.559707 0.752042
vn 0.303626 0.373929 0.876349
vn -0.068654 0.996680 0.043765
vn -0.605651 0.698479 0.381201
vn -0.605651 0.698479 0.381201
vn -0.067208 0.996818 0.042856
vn -0.000166 -0.000462 -1.000000
vn -0.000166 -0.000462 -1.000000
vn -0.851305 -0.013703 -0.524491
vn -0.851305 -0.013703 -0.524491
vn -0.850695 -0.014294 0.525466
vn -0.850695 -0.014294 0.525466
vn 0.000321 -0.000150 1.000000
vn 0.000321 -0.000150 1.000000
vn 0.836982 -0.025736 0.546624
vn 0.836982 -0.025736 0.546624
vn 0.838349 -0.025235 -0.544549
vn 0.838349 -0.025235 -0.544549
vn -0.000138 1.000000 0.000690
vn -0.000138 1.000000 0.000690
vn 0.064812 0.996825 0.046244
vn 0.075828 0.995438 0.057904
vn 0.001895 0.571165 0.820833
vn 0.001895 0.571165 0.820833
vn 0.001895 0.571165 0.820833
vn 0.001895 0.571165 0.820833
vn -0.000333 0.000000 -1.000000
vn -0.000333 0.000000 -1.000000
vn -0.000333 0.000000 -1.000000
vn -0.000333 0.000000 -1.000000
vn 0.001631 0.000000 0.999999
vn 0.001631 0.000000 0.999999
vn -0.790522 0.000000 0.612434
vn 0.567731 0.703248 0.427929
vn 0.328671 0.731315 0.597623
vn 0.742647 -0.076724 -0.665274
vn 0.742647 -0.076724 -0.665274
vn 0.742647 -0.076724 -0.665274
vn 0.742647 -0.076724 -0.665274
vn -0.775569 -0.070950 -0.627263
vn -0.775569 -0.070950 -0.627263
vn -0.775569 -0.070950 -0.627263
vn -0.775569 -0.070950 -0.627263
vn -0.327752 0.728073 0.602070
vn -0.327752 0.728073 0.602070
vn -0.327752 0.728073 0.602070
vn 0.820234 0.000000 0.572028
vn 0.586018 0.697984 0.411584
g HardChair
usemtl initialShadingGroup
f 1//1 6//2 5//3 4//4 3//5 2//6
f 19/34/7 20/19/8 21/20/9 22/21/10
f 20/19/8 19/34/7 17/35/11 23/23/12
f 22/21/10 21/20/9 24/24/13 11/33/14
f 11/5/15 12/30/16 14/28/17 13/6/18
f 1/8/1 2/9/6 10/11/19 8/3/20
f 2/9/6 3/10/5 12/13/21 10/11/22
f 3/10/5 4/12/4 14/15/23 12/13/24
f 4/12/4 5/14/3 16/17/25 14/15/26
f 5/14/3 6/31/2 18/32/27 16/17/28
f 6/16/2 1/8/1 8/3/29 18/18/30
f 7/1/31 9/2/32 11/5/15 13/6/18 15/7/33 17/4/34
f 13/6/35 14/29/36 16/26/37 15/7/38
f 8/3/39 10/11/40 21/20/41 20/19/42
f 9/2/43 7/1/44 19/22/7 22/25/10
f 7/1/45 17/4/11 19/22/7
f 18/18/46 23/23/47 17/35/34
f 18/18/48 8/3/49 20/19/50 23/23/51
f 10/11/52 12/13/53 24/24/54 21/20/55
f 12/13/56 11/33/57 24/24/58
f 11/5/14 9/2/59 22/25/10
f 18/36/46 17/4/34 15/7/33 16/27/60
