# This file uses centimeters as units for non-parametric coordinates.

mtllib KioskUV.mtl
g default
v 39.153133 0.000000 -67.815178
v -39.153099 0.000000 -67.815186
v -78.306229 0.000000 -0.000012
v -39.153122 0.000000 67.815186
v 39.153111 0.000000 67.815186
v 78.306229 0.000000 0.000000
v 48.078934 214.104218 -83.275101
v -48.078896 214.104218 -83.275108
v -96.157829 214.104218 -0.000014
v -48.078926 214.104218 83.275108
v 48.078911 214.104218 83.275108
v 96.157829 214.104218 0.000000
v 0.000000 271.692505 0.000000
v 39.153133 105.504761 -67.815178
v 78.306229 105.504761 0.000000
v 39.153111 105.504715 67.815155
v -39.153122 105.504761 67.815186
v -78.306229 105.504761 -0.000012
v -39.153099 105.504761 -67.815186
v -43.417236 198.010742 75.200844
v -86.834450 198.010742 -0.000013
v -43.417206 198.010742 -75.200844
v 43.417244 198.010742 -75.200844
v 86.834450 198.010742 0.000000
v 43.417221 198.010742 75.200844
v -30.223881 -0.000046 67.815155
v -30.223881 105.504715 67.815155
v -33.515518 198.010742 75.200844
v -37.114067 214.104218 83.275108
v 29.074413 -0.000046 67.815155
v 29.074413 105.504715 67.815155
v 32.240864 198.010742 77.822922
v 35.702553 214.104218 83.275108
v -48.078926 204.582184 83.275108
v -96.157829 204.582184 -0.000014
v -48.078896 204.582184 -83.275108
v 48.078934 204.582184 -83.275108
v 96.157829 204.582184 0.000000
v 48.078903 204.582184 83.275108
v 35.702553 204.582184 83.275108
v -37.114067 204.582184 83.275108
v -39.153122 114.831345 67.815186
v -78.306229 114.831345 -0.000012
v -39.153099 114.831345 -67.815186
v 39.153133 114.831345 -67.815178
v 78.306229 114.831345 0.000000
v 39.153111 114.831299 67.815155
v 29.074413 114.831299 67.815155
v -30.223881 114.831299 67.815155
v -35.898613 114.953781 61.104622
v -36.816544 198.740234 69.271339
v 34.754944 114.953781 61.104622
v 35.425613 198.827026 68.799316
v -37.054993 103.882477 60.064056
v -46.021343 209.404877 68.248573
v 37.076279 103.882477 60.064056
v 44.630413 209.513824 67.656265
v -13.361345 103.882477 60.208939
v -12.347497 114.953781 61.104622
v -10.457780 114.944878 69.526917
v -10.457780 105.097267 85.914558
v -10.457780 -0.000046 67.815155
v 12.280556 103.882477 60.167347
v 11.203725 114.953781 61.104622
v 9.308316 114.944878 69.526917
v 9.308316 105.097267 85.914558
v 9.308316 -0.000046 67.815155
v 46.160896 105.504761 -79.985977
v 92.321747 105.504761 -0.033000
v 46.160896 114.831345 -79.985977
v 92.321747 114.831345 -0.033000
v 46.160866 105.594872 79.919952
v 46.160866 115.035027 79.919952
v -35.633453 105.594872 79.919952
v -46.160889 105.594917 79.919983
v -35.633453 115.035027 79.919952
v -46.160889 115.035072 79.919983
v -92.321747 105.504761 -0.033014
v -92.321747 114.831345 -0.033014
v -46.160858 105.504761 -79.985985
v -46.160858 114.831345 -79.985985
v 10.974351 115.035034 97.651619
v 10.974351 105.594872 98.085358
v 34.240932 105.594872 79.919952
v 34.278252 115.035027 79.919952
v -12.329550 105.594872 98.085358
v -12.329550 115.035034 97.651619
vt 0.021377 0.014326
vt 0.239676 0.014246
vt 0.175973 0.677162
vt 0.012283 0.853573
vt 0.457972 0.014187
vt 0.374163 0.611176
vt 0.482864 0.014183
vt 0.386607 0.598447
vt 0.045537 0.014175
vt 0.265175 0.014176
vt 0.860097 0.700742
vt 0.639397 0.614187
vt 0.484813 0.014175
vt 0.484813 0.310102
vt 0.330139 0.493714
vt 0.179877 0.484793
vt 0.246233 0.616334
vt 0.102654 0.608164
vt 0.093396 0.594932
vt 0.040708 0.493969
vt 0.035239 0.476646
vt 0.110673 0.354797
vt 0.826290 0.708194
vt 0.976913 0.879222
vt 0.959133 0.894881
vt 0.813738 0.727414
vt 0.614376 0.637702
vt 0.606426 0.658978
vt 0.380449 0.635511
vt 0.401809 0.629009
vt 0.409133 0.655251
vt 0.389170 0.656700
vt 0.170144 0.711508
vt 0.183301 0.730338
vt 0.024345 0.886596
vt 0.042245 0.901634
vt 0.726206 0.234296
vt 0.947077 0.234296
vt 0.099359 0.621521
vt 0.252066 0.628123
vt 0.356715 0.480398
vt 0.344172 0.495027
vt 0.754040 0.236250
vt 0.104258 0.343242
vt 0.527152 0.236250
vt 0.021953 0.471610
vt 0.578501 0.951911
vt 0.081206 0.604214
vt 0.891294 0.251516
vt 0.961789 0.246875
vt 0.605491 0.600545
vt 0.548020 0.584448
vt 0.522215 0.624477
vt 0.525714 0.602381
vt 0.590690 0.631085
vt 0.583135 0.657000
vt 0.405747 0.930742
vt 0.025628 0.499381
vt 0.201587 0.756946
vt 0.387928 0.688744
vt 0.522039 0.018156
vt 0.796130 0.754483
vt 0.924429 0.902120
vt 0.608046 0.690732
vt 0.574141 0.690862
vt 0.417656 0.689669
vt 0.403661 0.706152
vt 0.597464 0.952595
vt 0.521682 0.691196
vt 0.395140 0.757263
vt 0.527002 0.711351
vt 0.396567 0.951544
vt 0.399548 0.733941
vt 0.622828 0.977474
vt 0.388300 0.731681
vt 0.530172 0.738829
vt 0.370716 0.976155
vt 0.464391 0.711321
vt 0.461014 0.738803
vt 0.469961 0.691331
vt 0.467383 0.600409
vt 0.470354 0.623099
vt 0.820645 0.251524
vt 0.473151 0.570167
vt 0.258567 0.356932
vt 0.981618 0.236250
vt 0.265623 0.344621
vt 0.106171 0.638854
vt 0.002577 0.489365
vt 0.085901 0.340783
vt 0.258677 0.325387
vt 0.271203 0.631922
vt 0.505550 0.234296
vt 0.016380 0.510162
vt 0.063039 0.607246
vt 0.011899 0.456501
vt 0.112023 0.325631
vt 0.284675 0.342608
vt 0.355632 0.512206
vt 0.243583 0.644724
vt 0.073050 0.626267
vt 0.605815 0.732866
vt 0.594334 0.735305
vt 0.587809 0.707608
vt 0.601747 0.758434
vt 0.419567 0.758170
vt 0.956307 0.018156
vt 0.933253 0.018156
vt 0.540033 0.013513
vt 0.753157 0.013513
vt 0.964482 0.013513
vt 0.726754 0.018156
vt 0.077138 0.907948
vt 0.891294 0.632670
vt 0.820651 0.632675
vt 0.725330 0.623134
vt 0.017267 0.310102
vt 0.458047 0.308263
vt 0.239767 0.308365
vt 0.021477 0.308432
vt 0.045537 0.310102
vt 0.265175 0.310102
vt 0.988047 0.845866
vt 0.445102 0.581872
vt 0.522558 0.571841
vt 0.136139 0.704998
vt 0.354793 0.612657
vt 0.620011 0.613442
vt 0.819602 0.674012
vt 0.017267 0.014175
vt 0.986619 0.623139
vt 0.750150 0.246871
vt 0.482940 0.308264
vt 0.577322 0.759143
vt 0.972537 0.234296
vt 0.513233 0.013513
vt 0.496802 0.236250
vt 0.423273 0.951533
vt 0.588499 0.938718
vn -0.866025 0.000000 -0.500000
vn -0.866025 0.000000 -0.500000
vn -0.866025 0.000000 -0.500000
vn -0.866025 0.000000 -0.500000
vn -0.866026 0.000000 0.500000
vn -0.866026 0.000000 0.500000
vn -0.866026 0.000000 0.500000
vn -0.866026 0.000000 0.500000
vn 0.000003 0.000000 1.000000
vn -0.300655 -0.056327 0.952068
vn -0.299826 -0.056172 0.952339
vn 0.000003 0.000000 1.000000
vn 0.866025 0.000000 0.500000
vn 0.866025 0.000000 0.500000
vn 0.866025 0.000000 0.500000
vn 0.866025 0.000000 0.500000
vn 0.866026 0.000000 -0.500000
vn 0.866026 0.000000 -0.500000
vn 0.866026 0.000000 -0.500000
vn 0.866026 0.000000 -0.500000
vn 0.256899 0.857911 -0.444962
vn -0.256899 0.857911 -0.444962
vn -0.000000 1.000000 0.000000
vn -0.513798 0.857911 -0.000000
vn -0.256899 0.857911 0.444962
vn 0.000000 0.822487 0.568784
vn 0.000000 0.822487 0.568784
vn 0.256899 0.857912 0.444962
vn 0.513798 0.857911 -0.000000
vn 0.674719 -0.626902 -0.389549
vn 0.675611 -0.625620 -0.390064
vn 0.866026 0.000000 -0.500000
vn 0.866026 0.000000 -0.500000
vn 0.678110 -0.621765 0.391886
vn 0.678669 -0.620952 0.392209
vn 0.866025 0.000000 0.500000
vn 0.866025 0.000000 0.500000
vn -0.000000 -0.617212 0.786797
vn -0.278259 -0.814038 0.509817
vn -0.468612 0.013978 0.883293
vn 0.000003 0.000000 1.000000
vn -0.678669 -0.620952 0.392208
vn -0.678110 -0.621765 0.391886
vn -0.866026 0.000000 0.500000
vn -0.866026 0.000000 0.500000
vn -0.675611 -0.625620 -0.390064
vn -0.674719 -0.626902 -0.389549
vn -0.866025 0.000000 -0.500000
vn -0.866025 0.000000 -0.500000
vn -0.848196 -0.201872 0.489706
vn -0.848196 -0.201872 0.489706
vn -0.804398 -0.370485 0.464419
vn -0.804398 -0.370485 0.464419
vn -0.848195 -0.201872 -0.489706
vn -0.848195 -0.201872 -0.489706
vn -0.804398 -0.370485 -0.464419
vn -0.804398 -0.370485 -0.464419
vn 0.000000 -0.775592 -0.631235
vn 0.000000 -0.370484 -0.928839
vn 0.000000 -0.370484 -0.928839
vn 0.000000 -0.775592 -0.631235
vn 0.848196 -0.201872 -0.489706
vn 0.848196 -0.201872 -0.489706
vn 0.804398 -0.370485 -0.464419
vn 0.804398 -0.370485 -0.464419
vn 0.848195 -0.201872 0.489706
vn 0.848195 -0.201872 0.489706
vn 0.804398 -0.370485 0.464419
vn 0.804398 -0.370485 0.464419
vn 0.000001 -0.201872 0.979412
vn -0.006569 -0.445460 0.895278
vn -0.005119 -0.355470 0.934674
vn 0.000000 -0.370485 0.928839
vn 0.222014 -0.124782 0.967026
vn 0.290089 -0.054348 0.955455
vn 0.289216 -0.054184 0.955729
vn 0.215043 -0.126329 0.968399
vn 0.362060 0.031298 0.931629
vn 0.263324 -0.674533 0.689685
vn 0.270170 -0.814291 0.513749
vn 0.453807 0.012628 0.891011
vn 0.062028 -0.444784 0.893487
vn 0.003170 -0.344771 0.938681
vn -0.000001 0.000000 1.000000
vn -0.000001 0.000000 1.000000
vn 0.000000 -0.617263 0.786757
vn 0.000000 0.000000 1.000000
vn 0.118967 -0.196711 0.973217
vn 0.034022 -0.335555 0.941406
vn -0.866026 0.000000 0.500000
vn -0.866026 0.000000 0.500000
vn -0.866025 0.000000 -0.500001
vn -0.866025 0.000000 -0.500001
vn 0.000000 0.000000 -1.000000
vn 0.000000 0.000000 -1.000000
vn 0.866026 0.000000 -0.500000
vn 0.866026 0.000000 -0.500000
vn 0.866025 -0.000001 0.500000
vn 0.866025 -0.000001 0.500000
vn 0.000000 0.000000 1.000000
vn 0.000000 0.000000 1.000000
vn 0.000000 0.000000 1.000000
vn 0.000000 0.000000 1.000000
vn -0.862632 -0.088444 0.498040
vn -0.862632 -0.088444 0.498040
vn -0.862631 -0.088444 -0.498041
vn -0.862631 -0.088444 -0.498041
vn 0.862632 -0.088444 -0.498040
vn 0.862632 -0.088444 -0.498040
vn 0.862631 -0.088444 0.498041
vn 0.862631 -0.088444 0.498041
vn 0.121711 -0.108590 0.986608
vn 0.121711 -0.108590 0.986608
vn 0.000001 -0.088444 0.996081
vn 0.000001 -0.088444 0.996081
vn 0.815454 0.074032 -0.574068
vn 0.815454 0.074032 -0.574068
vn 0.815454 0.074032 -0.574068
vn 0.815454 0.074032 -0.574068
vn 0.001158 0.999989 0.004556
vn 0.003025 0.999943 0.010194
vn 0.003025 0.999944 0.010194
vn 0.001631 0.999981 0.005983
vn -0.870812 0.071544 -0.486383
vn -0.870812 0.071544 -0.486383
vn -0.870812 0.071544 -0.486383
vn -0.870812 0.071544 -0.486383
vn 0.002228 -0.994695 -0.102845
vn 0.002228 -0.994695 -0.102845
vn 0.002228 -0.994695 -0.102845
vn 0.002228 -0.994695 -0.102845
vn 0.190872 0.094359 -0.977069
vn 0.190872 0.094359 -0.977069
vn 0.190872 0.094359 -0.977069
vn 0.190872 0.094359 -0.977069
vn -0.001440 0.085355 -0.996350
vn -0.002128 0.088644 -0.996061
vn -0.002128 0.088644 -0.996061
vn -0.001520 0.085734 -0.996317
vn -0.182633 0.086927 -0.979331
vn -0.182633 0.086927 -0.979331
vn -0.182633 0.086927 -0.979331
vn -0.182633 0.086927 -0.979331
vn -0.006379 -0.100917 -0.994874
vn -0.006379 -0.100917 -0.994874
vn -0.006379 -0.100917 -0.994874
vn -0.006379 -0.100917 -0.994874
vn 0.003055 0.086814 -0.996220
vn 0.000954 0.084487 -0.996424
vn 0.001180 0.084737 -0.996403
vn 0.003055 0.086814 -0.996220
vn -0.003025 0.999943 0.010194
vn -0.001159 0.999989 0.004558
vn -0.001630 0.999981 0.005981
vn -0.003025 0.999943 0.010194
vn -0.262506 -0.677243 0.687337
vn -0.361925 0.032011 0.931657
vn -0.222014 -0.124782 0.967026
vn -0.215043 -0.126329 0.968399
vn 0.000000 -1.000000 0.000000
vn 0.000000 -1.000000 0.000000
vn 0.000000 1.000000 -0.000000
vn 0.000000 1.000000 -0.000000
vn 0.000000 1.000000 -0.000000
vn 0.000000 1.000000 -0.000000
vn 0.002958 -0.999993 0.002318
vn 0.002958 -0.999993 0.002318
vn -0.006683 0.999964 -0.005237
vn -0.006683 0.999964 -0.005237
vn -0.006683 0.999964 -0.005237
vn -0.006683 0.999964 -0.005237
vn -0.000005 -0.999972 0.007445
vn -0.000005 -0.999972 0.007445
vn 0.000005 0.999858 -0.016825
vn 0.000005 0.999858 -0.016825
vn 0.000005 0.999858 -0.016825
vn 0.000005 0.999858 -0.016825
vn -0.002958 -0.999993 0.002317
vn -0.002958 -0.999993 0.002317
vn 0.006683 0.999964 -0.005237
vn 0.006683 0.999964 -0.005237
vn 0.006683 0.999964 -0.005237
vn 0.006683 0.999964 -0.005237
vn 0.000000 -1.000000 0.000001
vn 0.000000 -1.000000 0.000001
vn 0.000000 1.000000 0.000000
vn 0.000000 1.000000 0.000000
vn 0.000000 1.000000 0.000000
vn 0.000000 1.000000 0.000000
vn 0.024135 -0.999557 0.017408
vn 0.024135 -0.999557 0.017408
vn -0.000613 0.999974 -0.007200
vn -0.000613 0.999974 -0.007200
vn -0.000613 0.999974 -0.007200
vn -0.000613 0.999974 -0.007200
vn 0.000000 -0.999972 0.007448
vn 0.000000 -0.999972 0.007448
vn 0.000000 0.999858 -0.016828
vn 0.000000 0.999858 -0.016828
vn 0.000000 0.999858 -0.016828
vn 0.000000 0.999858 -0.016828
vn -0.023818 -0.999571 0.017057
vn -0.023818 -0.999571 0.017057
vn 0.000611 0.999974 -0.007195
vn 0.000611 0.999974 -0.007195
vn 0.000611 0.999974 -0.007195
vn 0.000611 0.999974 -0.007195
vn 0.000000 -0.999165 0.040851
vn 0.000000 -0.999165 0.040851
vn 0.000000 0.999995 -0.003206
vn 0.000000 0.999995 -0.003206
vn 0.000000 0.999995 -0.003206
vn 0.000000 0.999995 -0.003206
g KioskBooth
usemtl texturedFacets
f 2/1/1 3/2/2 18/119/3 19/120/4
f 3/2/5 4/5/6 17/118/7 18/119/8
f 4/5/9 26/7/10 27/133/11 17/118/12
f 5/9/13 6/10/14 15/122/15 16/121/16
f 6/10/17 1/13/18 14/14/19 15/122/20
f 7/85/21 8/15/22 13/16/23
f 8/15/22 9/17/24 13/16/23
f 9/17/24 10/18/25 13/16/23
f 10/18/25 29/19/26 33/20/27 11/21/28 13/16/23
f 11/21/28 12/22/29 13/16/23
f 12/22/29 7/85/21 13/16/23
f 69/23/30 68/24/31 70/25/32 71/26/33
f 72/27/34 69/23/35 71/26/36 73/28/37
f 75/29/38 74/30/39 76/31/40 77/32/41
f 78/33/42 75/29/43 77/32/44 79/34/45
f 80/35/46 78/33/47 79/34/48 81/36/49
f 21/100/50 20/88/51 34/39/52 35/40/53
f 22/99/54 21/92/55 35/40/56 36/42/57
f 22/41/58 36/42/59 37/87/60 23/98/61
f 24/97/62 23/91/63 37/87/64 38/44/65
f 25/96/66 24/90/67 38/44/68 39/46/69
f 20/101/70 28/95/71 41/48/72 34/39/73
f 67/49/74 30/50/75 31/131/76 66/114/77
f 82/53/78 83/54/79 84/55/80 85/56/81
f 41/48/72 28/95/71 32/94/82 40/58/83
f 31/117/76 30/130/75 5/9/84 16/121/85
f 85/56/81 84/55/80 72/27/86 73/28/87
f 40/58/83 32/94/82 25/89/88 39/46/89
f 35/40/53 34/39/52 10/18/90 9/17/91
f 36/42/57 35/40/56 9/17/92 8/15/93
f 36/42/59 8/15/94 7/85/95 37/87/60
f 38/44/65 37/87/64 7/85/96 12/22/97
f 39/46/69 38/44/68 12/22/98 11/21/99
f 33/20/100 40/58/83 39/46/89 11/21/101
f 29/19/102 41/48/72 40/58/83 33/20/100
f 34/39/73 41/48/72 29/19/102 10/18/103
f 43/112/104 42/108/105 20/38/51 21/37/50
f 44/61/106 43/112/107 21/37/55 22/93/54
f 46/110/108 45/111/109 23/86/63 24/43/62
f 47/109/110 46/110/111 24/43/67 25/45/66
f 32/137/82 48/136/112 47/109/113 25/45/88
f 42/108/114 49/107/115 28/135/71 20/38/70
f 28/47/116 49/134/117 50/105/118 51/68/119
f 65/69/120 48/65/121 52/104/122 64/71/123
f 48/106/124 32/138/125 53/72/126 52/70/127
f 32/57/128 28/139/129 51/68/130 53/72/131
f 51/68/132 50/105/133 54/102/134 55/74/135
f 64/71/136 52/104/137 56/103/138 63/76/139
f 52/70/140 53/72/141 57/77/142 56/75/143
f 53/72/144 51/68/145 55/74/146 57/77/147
f 50/67/148 59/78/149 58/79/150 54/73/151
f 49/66/152 60/80/153 59/78/154 50/67/155
f 76/31/40 74/30/39 86/81/156 87/82/157
f 26/132/10 62/83/158 61/115/159 27/116/11
f 59/78/149 64/71/136 63/76/139 58/79/150
f 60/80/153 65/69/120 64/71/123 59/78/154
f 87/82/157 86/81/156 83/54/79 82/53/78
f 62/83/158 67/49/74 66/114/77 61/115/159
f 15/11/160 14/123/161 68/24/31 69/23/30
f 45/63/162 46/62/163 71/26/164 70/25/165
f 16/12/166 15/129/167 69/23/35 72/27/34
f 46/62/168 47/64/169 73/28/170 71/26/171
f 17/6/172 27/8/173 74/30/39 75/29/38
f 49/66/174 42/60/175 77/32/176 76/31/177
f 18/3/178 17/127/179 75/29/43 78/33/42
f 42/60/180 43/59/181 79/34/182 77/32/183
f 19/4/184 18/126/185 78/33/47 80/35/46
f 43/59/186 44/113/187 81/36/188 79/34/189
f 66/52/190 31/51/191 84/55/80 83/54/79
f 48/65/192 65/69/193 82/53/194 85/56/195
f 31/51/196 16/128/197 72/27/86 84/55/80
f 47/64/198 48/65/199 85/56/200 73/28/201
f 27/8/202 61/124/203 86/81/156 74/30/39
f 60/80/204 49/66/205 76/31/206 87/82/207
f 61/84/208 66/125/209 83/54/79 86/81/156
f 65/69/210 60/80/211 87/82/212 82/53/213
