# This file uses centimeters as units for non-parametric coordinates.

mtllib narrow_low.mtl
g default
v 3.901364 0.371176 -0.277049
v 3.581455 0.371176 -0.277049
v 3.421501 0.371176 -0.000000
v 3.581455 0.371176 0.277049
v 3.901363 0.371176 0.277049
v 4.061318 0.371176 0.000000
v 3.901364 2.345225 -0.277049
v 3.581455 2.345225 -0.277049
v 3.421501 2.345225 -0.000000
v 3.581455 2.345225 0.277049
v 3.901363 2.345225 0.277049
v 4.061318 2.345225 0.000000
v 3.741409 0.045629 0.000000
v 3.741409 3.134864 0.000000
vt 0.578125 0.020934
vt 0.421875 0.020934
vt 0.343750 0.156250
vt 0.421875 0.291566
vt 0.578125 0.291566
vt 0.656250 0.156250
vt 0.375000 0.312500
vt 0.416667 0.312500
vt 0.458333 0.312500
vt 0.500000 0.312500
vt 0.541667 0.312500
vt 0.583333 0.312500
vt 0.625000 0.312500
vt 0.375000 0.688440
vt 0.416667 0.688440
vt 0.458333 0.688440
vt 0.500000 0.688440
vt 0.541667 0.688440
vt 0.583333 0.688440
vt 0.625000 0.688440
vt 0.578125 0.708434
vt 0.421875 0.708434
vt 0.343750 0.843750
vt 0.421875 0.979066
vt 0.578125 0.979066
vt 0.656250 0.843750
vt 0.500000 0.150000
vt 0.500000 0.837500
vn 0.000000 0.000000 -1.000000
vn 0.000000 0.000000 -1.000000
vn 0.000000 0.000000 -1.000000
vn 0.000000 0.000000 -1.000000
vn -0.866025 0.000000 -0.500000
vn -0.866025 0.000000 -0.500000
vn -0.866025 0.000000 -0.500000
vn -0.866025 0.000000 -0.500000
vn -0.866026 0.000000 0.500000
vn -0.866026 0.000000 0.500000
vn -0.866026 0.000000 0.500000
vn -0.866026 0.000000 0.500000
vn -0.000000 0.000000 1.000000
vn -0.000000 0.000000 1.000000
vn -0.000000 0.000000 1.000000
vn -0.000000 0.000000 1.000000
vn 0.866025 0.000000 0.500000
vn 0.866025 0.000000 0.500000
vn 0.866025 0.000000 0.500000
vn 0.866025 0.000000 0.500000
vn 0.866026 0.000000 -0.500000
vn 0.866026 0.000000 -0.500000
vn 0.866026 0.000000 -0.500000
vn 0.866026 0.000000 -0.500000
vn 0.000000 -0.648102 -0.761553
vn 0.000000 -0.648102 -0.761553
vn 0.000000 -0.648102 -0.761553
vn -0.659524 -0.648102 -0.380777
vn -0.659524 -0.648102 -0.380777
vn -0.659524 -0.648102 -0.380777
vn -0.659525 -0.648102 0.380776
vn -0.659525 -0.648102 0.380776
vn -0.659525 -0.648102 0.380776
vn -0.000000 -0.648102 0.761553
vn -0.000000 -0.648102 0.761553
vn -0.000000 -0.648102 0.761553
vn 0.659524 -0.648102 0.380777
vn 0.659524 -0.648102 0.380777
vn 0.659524 -0.648102 0.380777
vn 0.659525 -0.648102 -0.380776
vn 0.659525 -0.648102 -0.380776
vn 0.659525 -0.648102 -0.380776
vn 0.000000 0.331069 -0.943607
vn 0.000000 0.331069 -0.943606
vn 0.000000 0.331069 -0.943607
vn -0.817187 0.331069 -0.471803
vn -0.817187 0.331069 -0.471803
vn -0.817187 0.331069 -0.471803
vn -0.817187 0.331069 0.471803
vn -0.817187 0.331069 0.471803
vn -0.817187 0.331069 0.471803
vn -0.000000 0.331069 0.943606
vn -0.000000 0.331069 0.943606
vn -0.000000 0.331069 0.943607
vn 0.817187 0.331069 0.471803
vn 0.817187 0.331069 0.471803
vn 0.817187 0.331069 0.471803
vn 0.817187 0.331069 -0.471803
vn 0.817187 0.331069 -0.471803
vn 0.817187 0.331069 -0.471803
s off
g narrowest
usemtl initialShadingGroup
f 1/7/1 2/8/2 8/15/3 7/14/4
f 2/8/5 3/9/6 9/16/7 8/15/8
f 3/9/9 4/10/10 10/17/11 9/16/12
f 4/10/13 5/11/14 11/18/15 10/17/16
f 5/11/17 6/12/18 12/19/19 11/18/20
f 6/12/21 1/13/22 7/20/23 12/19/24
f 2/2/25 1/1/26 13/27/27
f 3/3/28 2/2/29 13/27/30
f 4/4/31 3/3/32 13/27/33
f 5/5/34 4/4/35 13/27/36
f 6/6/37 5/5/38 13/27/39
f 1/1/40 6/6/41 13/27/42
f 7/25/43 8/24/44 14/28/45
f 8/24/46 9/23/47 14/28/48
f 9/23/49 10/22/50 14/28/51
f 10/22/52 11/21/53 14/28/54
f 11/21/55 12/26/56 14/28/57
f 12/26/58 7/25/59 14/28/60
