# This file uses centimeters as units for non-parametric coordinates.

mtllib DeskChairUV.mtl
g default
v 11.350554 0.000000 -19.201590
v -10.830229 0.000000 -19.201593
v -21.920616 0.000000 0.007508
v -10.830235 0.000000 19.216610
v 11.350547 0.000000 19.216623
v 22.440933 0.000000 0.007512
v 10.575641 58.456497 -17.430506
v 12.637425 52.756657 -21.415995
v -9.954331 58.477276 -17.397015
v -12.099262 52.718990 -21.407747
v -21.111689 59.299992 -0.309377
v -26.178547 54.155106 -0.334319
v -9.947935 58.452164 17.452049
v -12.105186 52.716537 21.418392
v 10.611702 58.432552 17.388540
v 12.612576 52.700005 21.402529
v 23.020136 59.242733 0.599925
v 28.188278 54.005764 0.656060
v -19.864740 114.435410 21.461325
v -16.353054 108.913872 17.331470
v 20.372131 114.414520 21.474018
v 17.114988 108.828781 17.347927
vt 0.017127 0.596983
vt 0.016647 0.992193
vt 0.176229 0.596983
vt 0.174259 0.992193
vt 0.335291 0.596983
vt 0.335721 0.992193
vt 0.498641 0.596983
vt 0.499122 0.992193
vt 0.666781 0.596983
vt 0.663065 0.992193
vt 0.834970 0.596983
vt 0.998409 0.596983
vt 0.997929 0.992193
vt 0.834440 0.992193
vt 0.343708 0.449773
vt 0.380906 0.495083
vt 0.048991 0.584423
vt 0.071944 0.521804
vt 0.379381 0.177497
vt 0.342841 0.222874
vt 0.069919 0.153445
vt 0.045733 0.092718
vt 0.640465 0.144498
vt 0.686220 0.117837
vt 0.696394 0.312258
vt 0.647408 0.290407
vt 0.510676 0.063007
vt 0.510582 0.011024
vt 0.537063 0.429992
vt 0.531265 0.377573
vt 0.345974 0.115261
vt 0.354250 0.350656
vt 0.017780 0.560806
vt 0.015159 0.117921
vt 0.708317 0.492394
vt 0.708242 0.262122
vt 0.990070 0.189834
vt 0.990166 0.564682
vt 0.388463 0.150866
vt 0.393388 0.308669
vn 0.072765 0.987774 -0.137869
vn 0.349143 0.628174 -0.695339
vn -0.342107 0.631411 -0.695904
vn -0.068253 0.988460 -0.135233
vn 0.160968 0.986959 0.000971
vn 0.728967 0.684548 0.000614
vn -0.735788 0.677212 0.000160
vn -0.149581 0.988749 0.000414
vn -0.657300 0.601086 0.454589
vn -0.076472 0.995591 0.054315
vn -0.195638 0.083714 -0.977097
vn -0.396118 0.367552 -0.841425
vn 0.392139 0.383339 -0.836229
vn 0.199338 0.082225 -0.976475
vn 0.072022 0.995754 0.057326
vn 0.627315 0.595973 0.501290
vn -0.000142 -0.041874 -0.999123
vn -0.000142 -0.041874 -0.999123
vn -0.000142 -0.041874 -0.999123
vn -0.000142 -0.041874 -0.999123
vn -0.847616 -0.056413 -0.527603
vn -0.847616 -0.056413 -0.527603
vn -0.847616 -0.056413 -0.527603
vn -0.847616 -0.056413 -0.527603
vn -0.851689 -0.053166 0.521344
vn -0.851689 -0.053166 0.521344
vn -0.851689 -0.053166 0.521344
vn -0.851689 -0.053166 0.521344
vn 0.000323 -0.041586 0.999135
vn 0.000323 -0.041586 0.999135
vn 0.000323 -0.041586 0.999135
vn 0.000323 -0.041586 0.999135
vn 0.830818 -0.069244 0.552220
vn 0.830818 -0.069244 0.552220
vn 0.830818 -0.069244 0.552220
vn 0.830818 -0.069244 0.552220
vn 0.839410 -0.063223 -0.539809
vn 0.839410 -0.063223 -0.539809
vn 0.839410 -0.063223 -0.539809
vn 0.839410 -0.063223 -0.539809
vn -0.199341 -0.026516 -0.979571
vn -0.813506 -0.103115 -0.572342
vn 0.000048 -0.000927 1.000000
vn 0.000048 -0.000927 1.000000
vn 0.000048 -0.000927 1.000000
vn 0.000048 -0.000927 1.000000
vn 0.834393 -0.106003 -0.540881
vn 0.201164 -0.027006 -0.979185
g DeskChair
usemtl initialShadingGroup
f 7/23/1 8/24/2 10/25/3 9/26/4
f 8/24/2 7/23/1 17/27/5 18/28/6
f 9/26/4 10/25/3 12/29/7 11/30/8
f 11/30/8 12/29/7 14/32/9 13/40/10
f 20/18/11 19/33/12 21/34/13 22/21/14
f 15/39/15 16/31/16 18/28/6 17/27/5
f 1/11/17 2/12/18 10/13/19 8/14/20
f 2/1/21 3/3/22 12/4/23 10/2/24
f 3/3/25 4/5/26 14/6/27 12/4/28
f 4/5/29 5/7/30 16/8/31 14/6/32
f 5/7/33 6/9/34 18/10/35 16/8/36
f 6/9/37 1/11/38 8/14/39 18/10/40
f 7/23/1 9/26/4 11/30/8 13/40/10 15/39/15 17/27/5
f 13/15/41 14/16/42 19/17/12 20/18/11
f 14/35/43 16/36/44 21/37/45 19/38/46
f 16/19/47 15/20/48 22/21/14 21/22/13
f 15/20/48 13/15/41 20/18/11 22/21/14
