# This file uses centimeters as units for non-parametric coordinates.

mtllib DrawerUV.mtl
g default
v -2.302581 1.723239 -6.373755
v -2.302690 1.988814 -6.373796
v -2.867010 1.722942 -5.381959
v -2.866825 1.988203 -5.381788
v -3.146491 1.723433 -6.868281
v -3.146621 1.988976 -6.868335
v -3.711609 1.723099 -5.876324
v -3.710756 1.988365 -5.876327
v -2.338999 1.983064 -6.360974
v -2.874040 1.982486 -5.420117
v -3.139406 1.983219 -6.830009
v -3.674446 1.982641 -5.889152
v -2.339000 1.737488 -6.360972
v -2.874041 1.736909 -5.420115
v -3.139406 1.737643 -6.830007
v -3.674446 1.737065 -5.889150
v -3.692601 1.988372 -5.882739
v -3.143014 1.988966 -6.849171
v -2.870433 1.988213 -5.400951
v -2.320845 1.988807 -6.367384
v -2.584763 1.988508 -5.877786
v -2.574131 1.723276 -5.896936
v -2.596095 1.722931 -5.858599
v -2.574025 1.905653 -5.896980
v -2.595852 1.905262 -5.858575
v -2.573969 1.947190 -5.897000
v -2.595731 1.946776 -5.858563
v -2.581110 1.947052 -5.884603
v -2.588627 1.946914 -5.871375
v -2.573997 1.926382 -5.896991
v -2.595792 1.926019 -5.858569
v -2.581153 1.905523 -5.884178
v -2.588687 1.905392 -5.871377
v -2.553068 1.926268 -5.880906
v -2.558914 1.939490 -5.870702
v -2.559005 1.912886 -5.870322
v -2.565117 1.939384 -5.859788
v -2.565186 1.912785 -5.859739
v -2.571059 1.925979 -5.849214
v -2.546952 1.926332 -5.889194
v -2.556163 1.946973 -5.873316
v -2.555904 1.905441 -5.872499
v -2.565816 1.946807 -5.856263
v -2.566339 1.905283 -5.856427
v -2.574815 1.925881 -5.839597
v -2.523603 1.927250 -5.901044
v -2.540172 1.970769 -5.872592
v -2.539632 1.883336 -5.871247
v -2.557464 1.970467 -5.842068
v -2.558039 1.883070 -5.842316
v -2.573564 1.926497 -5.812310
v -2.524529 1.926324 -5.854228
v -2.516540 1.926426 -5.868541
v -2.524873 1.948392 -5.854317
v -2.524359 1.904243 -5.853473
v -2.533398 1.926159 -5.838294
v -2.533511 1.948231 -5.839014
v -2.534200 1.904088 -5.839330
v -2.541396 1.926019 -5.823985
v -2.574064 1.841178 -5.896965
v -2.595941 1.840787 -5.858584
v -2.574096 1.784288 -5.896952
v -2.596013 1.783898 -5.858591
v -2.595904 1.865919 -5.858580
v -2.574048 1.866310 -5.896971
v -2.577907 1.798733 -5.890276
v -2.581156 1.821471 -5.884548
v -2.581124 1.866094 -5.884526
v -2.592123 1.798658 -5.865385
v -2.588791 1.821381 -5.871161
v -2.588752 1.866004 -5.871136
v -2.581166 1.861842 -5.884460
v -2.588796 1.861752 -5.871072
v -2.593343 1.819047 -5.891829
v -2.593336 1.838611 -5.891806
v -2.586250 1.838753 -5.904246
v -2.600977 1.818956 -5.878442
v -2.600968 1.838521 -5.878418
v -2.608127 1.838362 -5.865865
v -2.593352 1.859418 -5.891742
v -2.600983 1.859327 -5.878353
v -2.590094 1.796308 -5.897557
v -2.604309 1.796233 -5.872666
v -2.574075 1.820865 -5.896960
v -2.595968 1.819293 -5.858587
vt 0.743681 0.165646
vt 0.609019 0.155060
vt 0.614611 0.138143
vt 0.614791 0.129413
vt 0.614991 0.120714
vt 0.759597 0.062575
vt 0.604088 0.137222
vt 0.607584 0.137544
vt 0.611195 0.137862
vt 0.611490 0.120398
vt 0.615483 0.104396
vt 0.474715 0.143192
vt 0.468574 0.044303
vt 0.604396 0.119904
vt 0.604249 0.128570
vt 0.607918 0.120142
vt 0.604668 0.103738
vt 0.608224 0.103886
vt 0.611987 0.104101
vt 0.615806 0.094021
vt 0.604845 0.093416
vt 0.608192 0.102162
vt 0.612049 0.102356
vt 0.617327 0.044869
vt 0.616495 0.070449
vt 0.970591 0.309082
vt 0.814485 0.965072
vt 0.847864 0.965049
vt 0.612593 0.085529
vt 0.614449 0.076325
vt 0.607097 0.076104
vt 0.605253 0.070017
vt 0.605568 0.044872
vt 0.608497 0.085523
vt 0.993741 0.203968
vt 0.006057 0.274121
vt 0.267705 0.207052
vt 0.250472 0.113303
vt 0.118815 0.399357
vt 0.050496 0.399356
vt 0.118976 0.700464
vt 0.050658 0.700463
vt 0.119018 0.958550
vt 0.050699 0.958550
vt 0.243830 0.392013
vt 0.173853 0.392051
vt 0.243829 0.700428
vt 0.173853 0.700465
vt 0.243927 0.964777
vt 0.173950 0.964815
vt 0.946364 0.732591
vt 0.918196 0.734088
vt 0.935227 0.716607
vt 0.902962 0.767815
vt 0.972602 0.756929
vt 0.904613 0.721477
vt 0.920360 0.702606
vt 0.949456 0.694933
vt 0.872362 0.737148
vt 0.979594 0.679487
vt 0.906522 0.690879
vt 0.936151 0.682611
vt 0.944347 0.649070
vt 0.825502 0.811408
vt 0.877445 0.667511
vt 0.828274 0.765858
vt 0.844548 0.820693
vt 0.859176 0.766318
vt 0.874204 0.782110
vt 0.719397 0.937200
vt 0.716475 0.911682
vt 0.697782 0.913651
vt 0.739510 0.935002
vt 0.736588 0.909483
vt 0.713428 0.884538
vt 0.755458 0.907515
vt 0.733540 0.882338
vt 0.714226 0.967845
vt 0.751623 0.963637
vt 0.474776 0.148940
vt 0.475815 0.155153
vt 0.743146 0.171695
vt 0.741689 0.177947
vt 0.267968 0.212732
vt 0.268355 0.218879
vt 0.966227 0.312890
vt 0.961792 0.317085
vt 0.659634 0.616123
vt 0.659634 0.949784
vt 0.373668 0.953499
vt 0.373669 0.619838
vt 0.845075 0.929893
vt 0.855725 0.774710
vt 0.865535 0.785284
vt 0.867062 0.928699
vt 0.808850 0.922627
vt 0.835175 0.774712
vt 0.864944 0.805495
vt 0.901725 0.917733
vt 0.934844 0.901456
vt 0.845270 0.811578
vt 0.832879 0.805550
vt 0.951614 0.888012
vt 0.873853 0.812186
vt 0.850310 0.983797
vt 0.867871 0.962044
vt 0.870318 0.980793
vt 0.899625 0.952878
vt 0.902073 0.971627
vt 0.716693 0.986589
vt 0.754088 0.982382
vt 0.933004 0.963561
vt 0.930556 0.944812
vt 0.960260 0.935670
vt 0.962708 0.954418
vt 0.782708 0.964490
vt 0.785163 0.983237
vt 0.816929 0.983822
vt 0.033245 0.370605
vt 0.037632 0.373507
vt 0.028982 0.368144
vt 0.845069 0.890442
vt 0.819321 0.885826
vt 0.924810 0.859100
vt 0.911011 0.870241
vt 0.863208 0.889449
vt 0.887760 0.882185
vt 0.774560 0.909818
vt 0.795287 0.876286
vt 0.789849 0.799342
vt 0.820809 0.795530
vt 0.829983 0.794123
vt 0.616058 0.085660
vt 0.605005 0.084582
vt 0.805218 0.834578
vt 0.810479 0.740974
vt 0.839803 0.851405
vt 0.898313 0.828866
vn 0.869131 -0.000124 0.494583
vn 0.869224 -0.000640 0.494418
vn 0.869133 -0.000146 0.494579
vn 0.869131 -0.000125 0.494582
vn 0.869126 -0.000154 0.494591
vn 0.869120 -0.000140 0.494601
vn -0.000124 1.000000 0.000544
vn -0.000124 1.000000 0.000544
vn -0.000124 1.000000 0.000544
vn -0.000124 1.000000 0.000544
vn 0.869273 0.000002 0.494332
vn 0.869273 0.000002 0.494332
vn 0.866719 0.076297 0.492927
vn 0.866745 0.075902 0.492941
vn 0.505584 -0.000008 -0.862777
vn 0.505584 -0.000008 -0.862777
vn 0.503835 0.083387 -0.859765
vn 0.503814 0.083894 -0.859729
vn -0.503789 0.083895 0.859743
vn -0.505584 0.000008 0.862778
vn -0.505584 0.000008 0.862778
vn -0.503813 0.083351 0.859782
vn -0.866781 0.075959 -0.492869
vn -0.869273 -0.000002 -0.494333
vn -0.869273 -0.000002 -0.494333
vn -0.866762 0.076248 -0.492858
vn 0.090474 0.994537 0.052060
vn 0.091823 0.994373 0.052828
vn -0.000164 1.000000 0.000520
vn -0.000164 1.000000 0.000520
vn 0.054616 0.994179 -0.092871
vn 0.053729 0.994368 -0.091357
vn -0.000134 1.000000 0.000562
vn -0.000134 1.000000 0.000562
vn -0.054880 0.994060 0.093982
vn -0.053990 0.994251 0.092463
vn -0.000130 1.000000 0.000554
vn -0.000130 1.000000 0.000554
vn -0.090798 0.994561 -0.051027
vn -0.092134 0.994399 -0.051787
vn -0.000151 1.000000 0.000525
vn -0.000151 1.000000 0.000525
vn -0.000151 1.000000 0.000525
vn 0.869312 -0.001118 0.494262
vn 0.869369 -0.001244 0.494162
vn 0.869316 -0.001121 0.494256
vn 0.868985 -0.000450 0.494838
vn 0.869335 -0.000977 0.494222
vn 0.869309 -0.001022 0.494267
vn 0.869209 -0.000987 0.494443
vn 0.869213 -0.000980 0.494438
vn 0.869308 -0.001112 0.494269
vn 0.869311 -0.001113 0.494265
vn 0.869317 -0.001131 0.494255
vn 0.870422 -0.005466 0.492276
vn 0.870038 -0.005380 0.492955
vn 0.985498 -0.005329 -0.169602
vn 0.856274 0.505556 0.105870
vn 0.865014 0.007289 0.501695
vn 0.854674 -0.509044 0.102014
vn 0.535627 0.504149 0.677449
vn 0.864854 -0.004610 0.502002
vn 0.514050 -0.519839 0.682291
vn 0.387416 -0.005877 0.921886
vn 0.525369 0.601806 -0.601513
vn 0.525369 0.601806 -0.601513
vn 0.525369 0.601806 -0.601513
vn 0.525369 0.601806 -0.601513
vn 0.519388 -0.608539 -0.599930
vn 0.519388 -0.608539 -0.599930
vn 0.519388 -0.608539 -0.599930
vn 0.519388 -0.608539 -0.599930
vn 0.236757 0.960794 0.144297
vn 0.236757 0.960794 0.144297
vn 0.236757 0.960794 0.144297
vn 0.236757 0.960794 0.144297
vn 0.238340 -0.962406 0.130264
vn 0.238340 -0.962406 0.130264
vn 0.238340 -0.962406 0.130264
vn 0.238340 -0.962406 0.130264
vn -0.235574 -0.611496 0.755366
vn -0.235574 -0.611496 0.755366
vn -0.235574 -0.611496 0.755366
vn -0.235574 -0.611496 0.755366
vn -0.234342 0.607110 0.759277
vn -0.234342 0.607110 0.759277
vn -0.234342 0.607110 0.759277
vn -0.234342 0.607110 0.759277
vn -0.803535 0.095328 -0.587574
vn -0.803535 0.095328 -0.587574
vn -0.803535 0.095328 -0.587574
vn -0.803535 0.095328 -0.587574
vn -0.788741 -0.134735 -0.599778
vn -0.788741 -0.134735 -0.599778
vn -0.788741 -0.134735 -0.599778
vn -0.788741 -0.134735 -0.599778
vn -0.860913 0.148272 -0.486666
vn -0.860913 0.148272 -0.486666
vn -0.860913 0.148272 -0.486666
vn -0.860913 0.148272 -0.486666
vn -0.838488 -0.149042 -0.524142
vn -0.838488 -0.149042 -0.524142
vn -0.838488 -0.149042 -0.524142
vn -0.838488 -0.149042 -0.524142
vn -0.917404 -0.072828 -0.391237
vn -0.917404 -0.072828 -0.391238
vn -0.917404 -0.072828 -0.391238
vn -0.917404 -0.072828 -0.391238
vn -0.922185 0.106282 -0.371859
vn -0.922185 0.106282 -0.371859
vn -0.922185 0.106282 -0.371859
vn -0.922185 0.106282 -0.371859
vn -0.461255 0.371407 -0.805792
vn 0.465968 0.608772 -0.642083
vn 0.441116 0.610235 -0.658051
vn -0.461255 0.371407 -0.805792
vn -0.433511 -0.408983 -0.802995
vn 0.438028 -0.615297 -0.655393
vn 0.468637 -0.612786 -0.636296
vn -0.433511 -0.408983 -0.802995
vn -0.747927 0.515224 -0.418508
vn -0.056226 0.998173 -0.022136
vn -0.059434 0.997945 -0.023955
vn -0.747927 0.515224 -0.418508
vn -0.702324 -0.547229 -0.455282
vn -0.021297 -0.999644 -0.016076
vn -0.066394 -0.996768 -0.045222
vn -0.702324 -0.547229 -0.455282
vn -0.930292 -0.366055 0.023663
vn -0.320479 -0.622833 0.713703
vn -0.310835 -0.622443 0.718294
vn -0.930292 -0.366055 0.023663
vn -0.931849 0.362831 0.003387
vn -0.333097 0.617542 0.712522
vn -0.318736 0.616867 0.719640
vn -0.931849 0.362831 0.003387
vn 0.868576 -0.001003 0.495555
vn 0.868932 -0.000857 0.494931
vn 0.868807 -0.000901 0.495150
vn 0.869274 -0.001164 0.494329
vn 0.869374 -0.001199 0.494153
vn 0.869373 -0.001200 0.494155
vn 0.869380 -0.001228 0.494143
vn -0.505369 0.000715 0.862903
vn -0.505369 0.000715 0.862903
vn -0.505369 0.000715 0.862903
vn -0.505369 0.000715 0.862903
vn -0.869080 0.001129 -0.494671
vn -0.869080 0.001129 -0.494671
vn -0.869079 0.001129 -0.494671
vn -0.869080 0.001129 -0.494671
vn 0.505583 0.000075 -0.862778
vn 0.505583 0.000075 -0.862778
vn 0.505583 0.000075 -0.862778
vn 0.505583 0.000075 -0.862778
vn 0.868888 -0.000406 0.495009
vn 0.868961 -0.000396 0.494880
vn 0.868959 -0.000382 0.494885
vn 0.868956 -0.000382 0.494889
vn 0.868022 -0.000687 0.496526
vn 0.869127 -0.000676 0.494589
vn 0.868559 -0.001013 0.495585
vn 0.868718 -0.000937 0.495306
vn 0.868912 -0.001322 0.494965
vn 0.868653 -0.000970 0.495419
vn 0.868812 -0.000896 0.495141
vn 0.868770 -0.000906 0.495216
vn 0.868408 -0.000511 0.495850
vn 0.868476 -0.001049 0.495730
vn 0.868476 -0.001049 0.495730
vn 0.868091 -0.000814 0.496405
vn 0.868645 -0.001248 0.495433
vn -0.499005 0.583368 0.640840
vn -0.499005 0.583368 0.640840
vn -0.499005 0.583368 0.640840
vn -0.499005 0.583368 0.640840
vn 0.321387 0.595545 -0.736231
vn 0.321387 0.595545 -0.736231
vn 0.321387 0.595545 -0.736231
vn 0.321387 0.595545 -0.736231
vn -0.335199 -0.569409 0.750610
vn -0.335199 -0.569408 0.750610
vn -0.335199 -0.569408 0.750610
vn -0.335199 -0.569408 0.750610
vn 0.149268 -0.985682 0.078423
vn 0.149268 -0.985682 0.078423
vn 0.149268 -0.985682 0.078423
vn 0.149268 -0.985682 0.078423
vn 0.503709 -0.562303 -0.655815
vn 0.503709 -0.562303 -0.655815
vn 0.503709 -0.562303 -0.655815
vn 0.503709 -0.562303 -0.655815
vn -0.451291 -0.278089 0.847941
vn -0.451291 -0.278089 0.847941
vn -0.451291 -0.278089 0.847941
vn -0.451291 -0.278089 0.847941
vn -0.147550 0.985708 -0.081295
vn -0.147550 0.985708 -0.081295
vn -0.147550 0.985708 -0.081295
vn -0.147550 0.985708 -0.081295
vn 0.532845 -0.281017 -0.798189
vn 0.532845 -0.281017 -0.798189
vn 0.532845 -0.281017 -0.798189
vn 0.532845 -0.281017 -0.798189
g RightMidDrawer LeftDrawers1
usemtl texturedFacets7
f 2/1/1 21/2/2 26/3/3 30/4/4 24/5/5 1/6/6
f 14/88/7 13/89/8 15/90/9 16/91/10
f 16/48/11 15/46/12 11/45/13 12/47/14
f 14/50/15 16/48/16 12/47/17 10/49/18
f 11/43/19 15/44/20 13/42/21 9/41/22
f 9/41/23 13/42/24 14/40/25 10/39/26
f 12/85/14 11/120/13 18/119/27 17/84/28
f 8/37/29 17/84/28 18/119/27 6/121/30
f 10/81/18 12/85/17 17/84/31 19/80/32
f 4/12/33 19/80/32 17/84/31 8/37/34
f 11/87/19 9/83/22 20/82/35 18/86/36
f 6/26/37 18/86/36 20/82/35 2/1/38
f 9/83/23 10/81/26 19/80/39 20/82/40
f 21/2/41 2/1/42 20/82/40 19/80/39 4/12/43
f 3/13/44 64/17/45 25/14/46
f 1/6/6 24/5/5 65/11/47
f 65/11/47 24/5/5 32/10/48 33/16/49 25/14/46 64/17/45 71/18/50 68/19/51
f 21/2/2 4/12/52 3/13/44 25/14/46 31/15/53 27/7/54
f 21/2/2 27/7/54 29/8/55 28/9/56 26/3/3
f 27/7/54 31/15/53 29/8/55
f 32/10/48 24/5/5 30/4/4
f 30/4/4 26/3/3 28/9/56
usemtl texturedFacets9
f 53/51/57 54/52/58 52/53/59
f 53/51/57 52/53/59 55/58/60
f 52/53/59 54/52/58 57/56/61 56/57/62
f 55/58/60 52/53/59 56/57/62 58/62/63
usemtl texturedFacets7
f 31/15/53 25/14/46 33/16/49
usemtl texturedFacets9
f 59/61/64 58/62/63 56/57/62
f 59/61/64 56/57/62 57/56/61
usemtl texturedFacets7
f 28/95/65 35/126/66 34/127/67 30/99/68
f 30/99/69 34/127/70 36/125/71 32/100/72
f 29/92/73 37/122/74 35/126/75 28/95/76
f 32/100/77 36/125/78 38/124/79 33/103/80
f 33/128/81 38/129/82 39/123/83 31/96/84
f 31/96/85 39/123/86 37/122/87 29/92/88
usemtl texturedFacets9
f 35/94/89 41/69/90 40/104/91 34/98/92
f 34/98/93 40/104/94 42/67/95 36/101/96
f 37/93/97 43/68/98 41/69/99 35/94/100
f 36/101/101 42/67/102 44/64/103 38/102/104
f 38/132/105 44/131/106 45/66/107 39/97/108
f 39/97/109 45/66/110 43/68/111 37/93/112
f 41/69/113 47/54/114 46/138/115 40/104/116
f 40/104/117 46/138/118 48/137/119 42/67/120
f 43/68/121 49/59/122 47/54/123 41/69/124
f 42/67/125 48/137/126 50/135/127 44/64/128
f 44/131/129 50/130/130 51/136/131 45/66/132
f 45/66/133 51/136/134 49/59/135 43/68/136
f 47/54/114 54/52/58 53/51/57 46/55/115
f 46/55/118 53/51/57 55/58/60 48/60/119
f 49/59/122 57/56/61 54/52/58 47/54/123
f 48/60/126 55/58/60 58/62/63 50/63/127
f 50/63/130 58/62/63 59/61/64 51/65/131
f 51/65/134 59/61/64 57/56/61 49/59/135
usemtl texturedFacets7
f 74/70/137 76/72/138 75/71/139
f 3/13/44 23/33/140 63/32/141 85/134/142 61/21/143
f 7/38/144 3/13/145 4/12/146 8/37/147
f 5/36/148 7/38/149 8/37/150 6/121/151
f 1/6/152 5/35/153 6/26/154 2/1/155
f 22/24/156 1/6/6 60/20/157 84/133/158 62/25/159
f 66/30/160 22/24/156 62/25/159
f 3/13/44 61/21/143 64/17/45
f 1/6/6 65/11/47 60/20/157
f 72/23/161 65/11/47 68/19/51
f 77/73/162 74/70/137 75/71/139 78/74/163
f 73/22/164 72/23/161 68/19/51 71/18/50
f 79/76/165 77/73/162 78/74/163
f 61/21/143 73/22/164 64/17/45
f 75/71/139 76/72/138 80/75/166
f 78/74/163 75/71/139 80/75/166 81/77/167
f 79/76/165 78/74/163 81/77/167
f 67/29/168 84/133/158 60/20/157
f 77/73/162 83/79/169 82/78/170 74/70/137
f 63/32/141 69/31/171 70/34/172 85/134/142
f 60/109/173 76/108/174 74/113/175 67/112/176
f 70/117/177 77/116/178 79/27/179 61/118/180
f 72/107/181 80/106/182 76/108/183 60/109/184
f 73/105/185 81/28/186 80/106/187 72/107/188
f 61/118/189 79/27/190 81/28/191 73/105/192
f 67/112/193 74/113/194 82/114/195 66/115/196
f 66/110/197 82/78/198 83/79/199 69/111/200
f 69/111/201 83/79/202 77/116/203 70/117/204
f 67/29/168 66/30/160 62/25/159 84/133/158
f 85/134/142 70/34/172 61/21/143
f 64/17/45 73/22/164 71/18/50
f 72/23/161 60/20/157 65/11/47
f 66/30/160 69/31/171 23/33/140 22/24/156
f 23/33/140 69/31/171 63/32/141
