# This file uses centimeters as units for non-parametric coordinates.

mtllib medtallsmallpool_low.mtl
g default
v 2.884249 -0.002449 -3.000642
v 1.458994 -0.002449 -5.469257
v -1.391517 -0.002449 -5.469257
v -2.816773 -0.002449 -3.000643
v -1.391518 -0.002449 -0.532027
v 1.458993 -0.002449 -0.532027
v 2.884249 2.180554 -3.000642
v 1.458994 2.180554 -5.469257
v -1.391517 2.180554 -5.469257
v -2.816773 2.180554 -3.000643
v -1.391518 2.180554 -0.532027
v 1.458993 2.180554 -0.532027
v 2.349659 2.180554 -3.000641
v 1.191699 2.180554 -5.006288
v -1.124223 2.180554 -5.006289
v -2.282183 2.180554 -3.000643
v -1.124223 2.180554 -0.994996
v 1.191698 2.180554 -0.994996
v 2.349659 0.270427 -3.000641
v 1.191699 0.270427 -5.006288
v -1.124223 0.270427 -5.006289
v -2.282183 0.270427 -3.000643
v -1.124223 0.270427 -0.994996
v 1.191698 0.270427 -0.994996
v 0.033738 0.270427 -3.000642
v -2.005330 -0.002449 -1.595181
v -2.005330 2.180554 -1.595181
v -1.604713 2.180554 -1.827229
v -1.605039 0.270427 -1.827793
v -2.202962 -0.002449 -1.937489
v -2.202961 2.180554 -1.937489
v -1.801693 2.180554 -2.168409
v -1.801368 0.270427 -2.167845
v -1.124223 1.838867 -0.994996
v -1.605039 1.838867 -1.827793
v -1.801368 1.838867 -2.167845
v -2.282183 1.838867 -3.000643
v -1.124223 1.838867 -5.006289
v 1.191698 1.838867 -5.006288
v 2.349659 1.838867 -3.000641
v 1.191698 1.838867 -0.994996
v 1.458993 1.838867 -0.532027
v -1.391518 1.838867 -0.532027
v -2.005330 1.838867 -1.595181
v -2.202961 1.838867 -1.937489
v -2.816774 1.838867 -3.000642
v -1.391517 1.838867 -5.469257
v 1.458994 1.838867 -5.469257
v 2.884249 1.838867 -3.000642
v -2.018460 1.838867 -1.617923
v -2.027650 1.915333 -1.633840
v -2.069026 1.838867 -1.705506
v -1.667251 1.838867 -1.935547
v -1.627168 1.915292 -1.866121
v -1.617997 1.838867 -1.850237
v -2.189252 1.838867 -1.913744
v -2.142664 1.838867 -1.833052
v -2.179758 1.903756 -1.897299
v -1.778388 1.904204 -2.128043
v -1.741414 1.838867 -2.064002
v -1.788410 1.838867 -2.145401
vt 0.509529 0.046441
vt 0.667341 0.046441
vt 0.819771 0.046441
vt 0.972482 0.046441
vt 0.179195 0.046441
vt 0.345643 0.046441
vt 0.508869 0.159847
vt 0.666457 0.158885
vt 0.817437 0.158131
vt 0.014857 0.156563
vt 0.177595 0.158989
vt 0.346219 0.160176
vt 0.668747 0.234323
vt 0.509529 0.232318
vt 0.820866 0.238132
vt 0.961625 0.242848
vt 0.184665 0.186421
vt 0.345454 0.231529
vt 0.666877 0.359166
vt 0.508820 0.360845
vt 0.817911 0.357762
vt 0.019640 0.356875
vt 0.181695 0.358914
vt 0.345302 0.361481
vt 0.253271 0.668036
vt 0.109758 0.046441
vt 0.116875 0.165654
vt 0.116341 0.229703
vt 0.114493 0.355828
vt 0.072658 0.230404
vt 0.163612 0.867974
vt 0.180906 0.253869
vt 0.961241 0.263422
vt 0.820077 0.259776
vt 0.668293 0.256948
vt 0.509303 0.255570
vt 0.345431 0.254987
vt 0.345992 0.141961
vt 0.177875 0.141507
vt 0.971898 0.145546
vt 0.818151 0.140626
vt 0.666601 0.141006
vt 0.508937 0.141689
vt 0.107774 0.250484
vt 0.107490 0.245983
vt 0.109707 0.250675
vt 0.107283 0.154688
vt 0.100729 0.151556
vt 0.106838 0.150673
vt 0.087183 0.046441
vt 0.108643 0.150168
vt 0.084562 0.150241
vt 0.086482 0.150649
vt 0.086336 0.154249
vt 0.077231 0.164831
vt 0.081328 0.250576
vt 0.083038 0.250099
vt 0.089747 0.250110
vt 0.104229 0.183695
vt 0.087255 0.183960
vt 0.092008 0.151517
vt 0.087059 0.355715
vt 0.126356 0.847062
vt 0.035027 0.795898
vt 0.033747 0.543342
vt 0.252192 0.416145
vt 0.254672 0.919810
vt 0.472637 0.792321
vt 0.471368 0.540979
vt 0.020451 0.141411
vt 0.971320 0.164772
vt 0.015567 0.254747
vt 0.961326 0.356954
vt 0.017980 0.234089
vt 0.017525 0.046441
vt 0.181818 0.230930
vt 0.346314 0.187953
vt 0.508397 0.187365
vt 0.022816 0.181778
vt 0.955005 0.191387
vt 0.093711 0.183572
vt 0.083212 0.246296
vt 0.100394 0.250225
vt 0.111239 0.184546
vt 0.119983 0.190687
vt 0.076830 0.188179
vt 0.665682 0.185793
vt 0.815954 0.184438
vn 0.866026 0.000000 -0.500000
vn 0.866026 0.000000 -0.500000
vn 0.866026 0.000000 -0.500000
vn 0.866026 0.000000 -0.500000
vn 0.000000 0.000000 -1.000000
vn 0.000000 0.000000 -1.000000
vn 0.000000 0.000000 -1.000000
vn 0.000000 0.000000 -1.000000
vn -0.866025 0.000000 -0.500000
vn -0.866025 0.000000 -0.500000
vn -0.866025 0.000000 -0.500000
vn -0.866025 0.000000 -0.500000
vn -0.866025 -0.000000 0.500000
vn -0.866025 0.000000 0.500000
vn -0.866025 0.000000 0.500000
vn -0.866025 0.000000 0.500000
vn 0.000000 0.000000 1.000000
vn 0.000000 0.000000 1.000000
vn 0.000000 0.000000 1.000000
vn 0.000000 0.000000 1.000000
vn 0.866025 0.000000 0.500000
vn 0.866025 0.000000 0.500000
vn 0.866025 0.000000 0.500000
vn 0.866025 0.000000 0.500000
vn -0.000000 1.000000 0.000000
vn -0.000000 1.000000 0.000000
vn -0.000000 1.000000 0.000000
vn 0.000000 1.000000 0.000000
vn 0.000000 1.000000 -0.000000
vn 0.000000 1.000000 -0.000000
vn 0.000000 1.000000 -0.000000
vn 0.000000 1.000000 0.000000
vn 0.000000 1.000000 0.000000
vn 0.000000 1.000000 0.000000
vn 0.000000 1.000000 0.000000
vn 0.000000 1.000000 0.000000
vn 0.000000 1.000000 0.000000
vn 0.000000 1.000000 0.000000
vn 0.000000 1.000000 0.000000
vn 0.000000 1.000000 0.000000
vn 0.000000 1.000000 0.000000
vn -0.000000 1.000000 0.000000
vn -0.000000 1.000000 0.000000
vn -0.000000 1.000000 0.000000
vn 0.000000 1.000000 0.000000
vn 0.000000 1.000000 0.000000
vn 0.000000 1.000000 0.000000
vn 0.000000 1.000000 0.000000
vn -0.866026 0.000000 0.500000
vn -0.866025 0.000000 0.500000
vn -0.866025 0.000000 0.500000
vn -0.866025 0.000000 0.500000
vn 0.000000 0.000000 1.000000
vn -0.000000 0.000001 1.000000
vn -0.000000 0.000000 1.000000
vn -0.000000 0.000000 1.000000
vn 0.866025 0.000000 0.500000
vn 0.866025 0.000000 0.500000
vn 0.866025 0.000000 0.500000
vn 0.866025 0.000000 0.500000
vn 0.866026 0.000000 -0.500000
vn 0.866025 0.000000 -0.500000
vn 0.866026 0.000000 -0.500000
vn 0.866026 0.000000 -0.500000
vn -0.000000 -0.000000 -1.000000
vn -0.000000 -0.000000 -1.000000
vn 0.000000 -0.000000 -1.000000
vn -0.000000 0.000000 -1.000000
vn -0.866025 0.000000 -0.500000
vn -0.866025 0.000000 -0.500000
vn -0.866025 -0.000000 -0.500000
vn -0.866025 -0.000000 -0.500000
vn -0.000000 1.000000 0.000000
vn -0.000000 1.000000 0.000000
vn -0.000000 1.000000 0.000000
vn 0.000000 1.000000 0.000000
vn 0.000000 1.000000 0.000000
vn 0.000000 1.000000 0.000000
vn 0.000000 1.000000 0.000000
vn 0.000000 1.000000 0.000000
vn 0.000000 1.000000 0.000000
vn 0.000000 1.000000 0.000000
vn 0.000000 1.000000 0.000000
vn 0.000000 1.000000 -0.000000
vn -0.000000 1.000000 -0.000000
vn -0.000000 1.000000 -0.000000
vn -0.000000 1.000000 -0.000000
vn -0.000000 1.000000 -0.000000
vn -0.000000 1.000000 -0.000000
vn -0.000000 1.000000 -0.000000
vn -0.000000 1.000000 -0.000000
vn -0.000000 1.000000 -0.000000
vn -0.866025 0.000000 0.500000
vn -0.866025 0.000000 0.500000
vn -0.866025 0.000000 0.500000
vn -0.866026 0.000000 0.500000
vn 0.000000 1.000000 0.000000
vn 0.000000 1.000000 0.000000
vn 0.000000 1.000000 0.000000
vn 0.000000 1.000000 0.000000
vn 0.866025 0.000000 -0.500000
vn 0.866025 0.000000 -0.500000
vn 0.866025 0.000000 -0.500000
vn 0.866025 0.000000 -0.500000
vn -0.866025 0.000000 0.500000
vn -0.866025 0.000000 0.500000
vn -0.866025 0.000000 0.500000
vn -0.866026 0.000000 0.500000
vn 0.140172 0.959504 0.244342
vn -0.156229 0.949284 -0.272859
vn 0.140666 0.959420 0.244391
vn -0.159116 0.948230 -0.274850
vn 0.866025 0.000000 -0.500000
vn 0.491835 0.166317 0.854656
vn 0.491506 0.165584 0.854987
vn 0.470250 0.332717 0.817414
vn 0.469724 0.332724 0.817713
vn -0.494266 0.165976 -0.853319
vn -0.494574 0.166701 -0.852999
vn -0.469099 0.348504 -0.811475
vn -0.471088 0.343927 -0.812275
vn 0.866025 0.000000 -0.500000
vn 0.866025 0.000000 -0.500000
vn 0.866026 0.000000 -0.500000
vn 0.866025 0.000000 -0.500000
vn 0.866025 0.000000 -0.500000
vn 0.866025 0.000000 -0.500000
vn 0.866026 0.000000 -0.500000
vn 0.866025 0.000000 0.500000
vn 0.866025 0.000000 0.500000
vn -0.000000 -0.000000 1.000000
vn -0.000000 -0.000000 1.000000
vn -0.866025 -0.000000 0.500000
vn -0.866026 -0.000000 0.500000
vn -0.866025 -0.000000 -0.500000
vn -0.866025 0.000000 -0.500000
vn 0.000000 0.000000 -1.000000
vn -0.000000 0.000000 -1.000000
vn -0.000000 0.000000 1.000000
vn 0.000000 0.000000 1.000000
vn -0.866025 0.000000 0.500000
vn -0.866026 0.000000 0.500000
vn -0.866033 0.000000 0.499987
vn -0.866025 0.000000 0.500000
vn -0.866025 0.000000 0.500000
vn -0.866025 -0.000000 -0.500000
vn -0.866025 -0.000001 -0.500000
vn 0.000000 0.000000 -1.000000
vn -0.000000 0.000000 -1.000000
vn 0.866026 0.000000 -0.500000
vn 0.866026 0.000000 -0.500000
vn 0.866026 0.000000 0.500000
vn 0.866025 0.000000 0.500000
vn -0.866025 0.000000 0.500000
vn 0.866025 0.000000 -0.500000
vn 0.866025 0.000000 -0.500000
vn 0.866025 0.000000 -0.500000
vn 0.866025 0.000000 -0.500000
vn 0.866025 0.000000 -0.500000
s 1
g medtallsmall
usemtl texturedFacets3
f 1/1/1 2/2/2 49/43/3
f 49/43/3 2/2/2 48/42/4
s 2
f 2/2/5 3/3/6 48/42/7
f 48/42/7 3/3/6 47/41/8
s 3
f 3/3/9 4/4/10 47/41/11
f 47/41/11 4/4/10 46/40/12
s 4
f 4/75/13 30/50/14 46/70/15
f 46/70/15 30/50/14 45/52/16
s 5
f 5/5/17 6/6/18 43/39/19
f 43/39/19 6/6/18 42/38/20
s 6
f 6/6/21 1/1/22 42/38/23
f 42/38/23 1/1/22 49/43/24
s 7
f 7/7/25 8/8/26 13/78/27
f 13/78/27 8/8/26 14/87/28
s 8
f 8/8/29 9/9/30 14/87/31
f 14/87/31 9/9/30 15/88/32
s 9
f 9/9/33 10/71/34 15/88/35
f 15/88/35 10/71/34 16/80/36
s 10
f 10/10/37 31/55/38 16/79/39
f 16/79/39 31/55/38 32/86/40
s 11
f 17/17/41 11/11/42 18/77/43
f 18/77/43 11/11/42 12/12/44
s 12
f 12/12/45 7/7/46 18/77/47
f 18/77/47 7/7/46 13/78/48
s 13
f 13/14/49 14/13/50 40/36/51
f 40/36/51 14/13/50 39/35/52
s 14
f 14/13/53 15/15/54 39/35/55
f 39/35/55 15/15/54 38/34/56
s 15
f 15/15/57 16/16/58 38/34/59
f 38/34/59 16/16/58 37/33/60
s 16
f 16/74/61 32/30/62 37/72/63
f 37/72/63 32/30/62 36/56/64
s 17
f 41/37/65 34/32/66 18/18/67
f 18/18/67 34/32/66 17/76/68
s 18
f 18/18/69 13/14/70 41/37/71
f 41/37/71 13/14/70 40/36/72
s off
f 19/66/73 20/69/74 25/25/75
f 20/69/76 21/68/77 25/25/78
f 21/68/79 22/67/80 25/25/81
s 19
f 22/67/82 33/31/83 25/25/84
f 23/64/85 25/25/84 29/63/86
f 33/31/83 29/63/86 25/25/84
s off
f 23/64/87 24/65/88 25/25/89
f 24/65/90 19/66/91 25/25/92
s 4
f 26/26/93 5/5/94 44/51/95
f 44/51/95 5/5/94 43/39/96
s 21
f 28/85/97 27/27/98 17/17/99
f 17/17/99 27/27/98 11/11/100
s 16
f 35/46/101 28/28/102 34/32/103
f 34/32/103 28/28/102 17/76/104
s 4
f 30/50/14 26/26/93 45/52/16
f 45/52/16 26/26/93 56/53/105
f 56/53/105 26/26/93 57/61/106
f 57/61/106 26/26/93 52/48/107
f 44/51/95 50/49/108 26/26/93
f 26/26/93 50/49/108 52/48/107
s 23
f 57/61/109 52/48/110 60/81/111
f 60/81/111 52/48/110 53/59/112
s 16
f 36/56/64 32/30/62 61/57/113
s 23
f 32/86/114 31/55/115 59/60/116
f 59/60/116 31/55/115 58/54/117
f 27/27/118 28/85/119 51/47/120
f 51/47/120 28/85/119 54/84/121
s 16
f 29/29/122 35/46/101 23/23/123
f 23/23/123 35/46/101 34/32/103
f 33/62/124 36/56/64 29/29/122
f 36/56/64 61/57/113 29/29/122
f 61/57/113 60/58/125 29/29/122
f 60/58/125 53/83/126 29/29/122
f 35/46/101 29/29/122 55/44/127
f 53/83/126 55/44/127 29/29/122
f 37/72/63 36/56/64 22/22/128
f 22/22/128 36/56/64 33/62/124
s 15
f 38/34/59 37/33/60 21/21/129
f 21/21/129 37/33/60 22/73/130
s 14
f 39/35/55 38/34/56 20/19/131
f 20/19/131 38/34/56 21/21/132
s 13
f 40/36/51 39/35/52 19/20/133
f 19/20/133 39/35/52 20/19/134
s 18
f 41/37/71 40/36/72 24/24/135
f 24/24/135 40/36/72 19/20/136
s 17
f 24/24/137 23/23/138 41/37/65
f 41/37/65 23/23/138 34/32/66
s 5
f 43/39/19 42/38/20 11/11/139
f 11/11/139 42/38/20 12/12/140
s 4
f 44/51/95 43/39/96 27/27/141
f 27/27/141 43/39/96 11/11/142
f 44/51/95 27/27/141 50/49/108
f 27/27/141 51/47/143 50/49/108
f 46/70/15 45/52/16 10/10/144
f 10/10/144 45/52/16 31/55/145
s 3
f 47/41/11 46/40/12 9/9/146
f 9/9/146 46/40/12 10/71/147
s 2
f 48/42/7 47/41/8 8/8/148
f 8/8/148 47/41/8 9/9/149
s 1
f 49/43/3 48/42/4 7/7/150
f 7/7/150 48/42/4 8/8/151
s 6
f 42/38/23 49/43/24 12/12/152
f 12/12/152 49/43/24 7/7/153
s 4
f 45/52/16 56/53/105 31/55/145
f 56/53/105 58/54/154 31/55/145
s 16
f 35/46/101 55/44/127 28/28/102
f 55/44/127 54/45/155 28/28/102
s 23
f 52/48/110 51/47/120 53/59/112
f 53/59/112 51/47/120 54/84/121
s 4
f 50/49/108 51/47/143 52/48/107
s 16
f 53/83/126 54/45/155 55/44/127
s 23
f 58/54/117 57/61/109 59/60/116
f 59/60/116 57/61/109 60/81/111
s 4
f 56/53/105 57/61/106 58/54/154
s 16
f 59/82/156 60/58/125 61/57/113
s off
f 59/82/157 61/57/158 32/30/159
