# This file uses centimeters as units for non-parametric coordinates.

mtllib largepool_low.mtl
g default
v -3.839241 -0.002869 9.540935
v 7.460057 -0.002869 9.540937
v 13.109706 -0.002869 -0.244540
v 7.460060 -0.002869 -10.030019
v -3.839238 -0.002869 -10.030020
v -9.488886 -0.002869 -0.244542
v -3.839241 0.722078 9.540935
v 7.460057 0.722078 9.540937
v 13.109706 0.722078 -0.244540
v 7.460060 0.722078 -10.030019
v -3.839238 0.722078 -10.030019
v -9.488886 0.722078 -0.244542
v -2.779696 0.722078 7.705749
v 6.400511 0.722078 7.705751
v 10.990616 0.722078 -0.244540
v 6.400515 0.722078 -8.194833
v -2.779693 0.722078 -8.194833
v -7.369796 0.722078 -0.244542
v -2.779696 0.087750 7.705749
v 6.400511 0.087750 7.705751
v 10.990616 0.087750 -0.244540
v 6.400515 0.087750 -8.194833
v -2.779693 0.087750 -8.194833
v -7.369796 0.087750 -0.244542
v 1.810410 0.087750 -0.244541
v 1.027010 -0.002869 -10.030020
v 1.027010 0.722078 -10.030018
v 1.029591 0.722078 -8.194833
v 1.032172 0.087750 -8.194833
v 2.593813 -0.002869 -10.030020
v 2.593813 0.722078 -10.030018
v 2.591232 0.722078 -8.194833
v 2.588651 0.087750 -8.194833
v -2.779693 0.608608 -8.194833
v 1.032172 0.608608 -8.194833
v 2.588651 0.608608 -8.194833
v 6.400515 0.608608 -8.194833
v 10.990616 0.608608 -0.244540
v 6.400511 0.608608 7.705750
v -2.779696 0.608608 7.705749
v -7.369795 0.608608 -0.244542
v -9.488886 0.608608 -0.244542
v -3.839238 0.608608 -10.030020
v 1.027010 0.608608 -10.030018
v 2.593813 0.608608 -10.030018
v 7.460060 0.608608 -10.030020
v 13.109706 0.608608 -0.244540
v 7.460057 0.608608 9.540937
v -3.839241 0.608608 9.540935
v 1.131101 0.608608 -10.030018
v 1.203958 0.634001 -10.030018
v 1.531984 0.608608 -10.030018
v 1.525381 0.608608 -8.194833
v 1.207606 0.633988 -8.194833
v 1.134901 0.608608 -8.194833
v 2.485128 0.608608 -10.030018
v 2.115785 0.608608 -10.030018
v 2.409858 0.630157 -10.030018
v 2.406469 0.630305 -8.194833
v 2.113342 0.608608 -8.194833
v 2.485922 0.608608 -8.194833
vt 0.476049 0.377073
vt 0.608139 0.322313
vt 0.761295 0.330476
vt 0.794707 0.515726
vt 0.991643 0.840518
vt 0.359764 0.294292
vt 0.474994 0.385134
vt 0.609484 0.331341
vt 0.755373 0.336156
vt 0.781095 0.516493
vt 0.116901 0.088238
vt 0.349016 0.305146
vt 0.613403 0.358230
vt 0.472695 0.403670
vt 0.735714 0.356517
vt 0.741107 0.511268
vt 0.889541 0.948825
vt 0.316615 0.335291
vt 0.615279 0.367277
vt 0.471858 0.413975
vt 0.731156 0.360318
vt 0.726689 0.508494
vt 0.025801 0.184874
vt 0.308290 0.350720
vt 0.295054 0.711806
vt 0.822586 0.666425
vt 0.798216 0.691867
vt 0.718029 0.741660
vt 0.681048 0.760628
vt 0.697741 0.645492
vt 0.226406 0.862809
vt 0.884524 0.954147
vt 0.738095 0.510515
vt 0.734912 0.357175
vt 0.613744 0.359874
vt 0.472525 0.405486
vt 0.315023 0.338068
vt 0.350574 0.303194
vt 0.967173 0.866475
vt 0.783518 0.516484
vt 0.756279 0.335311
vt 0.609281 0.329919
vt 0.475140 0.383835
vt 0.710265 0.737555
vt 0.711797 0.731296
vt 0.711478 0.744229
vt 0.793687 0.683140
vt 0.786572 0.670506
vt 0.797990 0.683996
vt 0.781425 0.633532
vt 0.801821 0.687483
vt 0.765482 0.636568
vt 0.767458 0.639724
vt 0.767051 0.642786
vt 0.762535 0.636674
vt 0.692852 0.645133
vt 0.694086 0.651862
vt 0.698608 0.676117
vt 0.705829 0.712999
vt 0.697147 0.657378
vt 0.774335 0.651150
vt 0.669010 0.642976
vt 0.198592 0.847105
vt 0.130723 0.806358
vt 0.130386 0.616749
vt 0.295059 0.521626
vt 0.295189 0.901346
vt 0.459740 0.806915
vt 0.459713 0.616746
vt 0.121294 0.083578
vt 0.962392 0.871547
vt 0.046759 0.162642
vt 0.861753 0.978301
vt 0.051279 0.157847
vt 0.144219 0.059260
vn -0.000000 0.000000 1.000000
vn -0.000000 0.000000 1.000000
vn -0.000000 0.000000 1.000000
vn -0.000000 0.000000 1.000000
vn 0.866025 0.000000 0.500000
vn 0.866025 0.000000 0.500000
vn 0.866025 0.000000 0.500000
vn 0.866025 0.000000 0.500000
vn 0.866025 0.000000 -0.500000
vn 0.866026 0.000002 -0.500000
vn 0.866025 0.000000 -0.500000
vn 0.866026 0.000000 -0.500000
vn 0.000000 -0.000001 -1.000000
vn -0.000000 0.000001 -1.000000
vn -0.000000 0.000001 -1.000000
vn -0.000000 0.000002 -1.000000
vn -0.866025 0.000000 -0.500000
vn -0.866025 0.000000 -0.500000
vn -0.866025 0.000001 -0.500000
vn -0.866025 0.000000 -0.500000
vn -0.866026 0.000000 0.500000
vn -0.866026 0.000000 0.500000
vn -0.866026 0.000000 0.500000
vn -0.866026 0.000000 0.500000
vn 0.000000 1.000000 -0.000000
vn 0.000000 1.000000 -0.000000
vn 0.000000 1.000000 -0.000000
vn 0.000000 1.000000 0.000000
vn -0.000000 1.000000 0.000000
vn -0.000000 1.000000 0.000000
vn -0.000000 1.000000 0.000000
vn 0.000000 1.000000 0.000000
vn 0.000000 1.000000 0.000000
vn 0.000000 1.000000 0.000000
vn 0.000000 1.000000 0.000000
vn 0.000000 1.000000 0.000000
vn 0.000000 1.000000 0.000000
vn 0.000000 1.000000 0.000000
vn 0.000000 1.000000 0.000000
vn 0.000000 1.000000 0.000000
vn 0.000000 1.000000 0.000000
vn 0.000000 1.000000 -0.000000
vn 0.000000 1.000000 -0.000000
vn 0.000000 1.000000 -0.000000
vn 0.000000 1.000000 0.000000
vn 0.000000 1.000000 0.000000
vn 0.000000 1.000000 0.000000
vn 0.000000 1.000000 0.000000
vn 0.000000 0.000000 -1.000000
vn 0.000000 0.000006 -1.000000
vn 0.000000 0.000000 -1.000000
vn 0.000000 0.000000 -1.000000
vn -0.866026 0.000001 -0.500000
vn -0.866025 0.000007 -0.500000
vn -0.866025 0.000000 -0.500000
vn -0.866025 0.000000 -0.500000
vn -0.866025 0.000000 0.500000
vn -0.866026 0.000000 0.500000
vn -0.866026 0.000000 0.500000
vn -0.866026 0.000000 0.500000
vn -0.000000 0.000000 1.000000
vn -0.000000 0.000000 1.000000
vn -0.000000 0.000000 1.000000
vn -0.000000 0.000000 1.000000
vn 0.866025 -0.000000 0.500000
vn 0.866026 -0.000000 0.500000
vn 0.866025 -0.000000 0.500000
vn 0.866026 0.000000 0.500000
vn 0.866026 0.000000 -0.500000
vn 0.866025 0.000000 -0.500000
vn 0.866026 -0.000000 -0.500000
vn 0.866026 -0.000000 -0.500000
vn -0.000000 1.000000 0.000000
vn -0.000000 1.000000 0.000000
vn -0.000000 1.000000 0.000000
vn 0.000000 1.000000 0.000000
vn 0.000000 1.000000 0.000000
vn 0.000000 1.000000 0.000000
vn 0.000000 1.000000 0.000000
vn 0.000000 1.000000 0.000000
vn 0.000000 1.000000 0.000000
vn -0.000000 1.000000 -0.000000
vn -0.000000 1.000000 -0.000000
vn 0.000000 1.000000 -0.000000
vn 0.000000 1.000000 -0.000000
vn 0.000000 1.000000 -0.000000
vn 0.000000 1.000000 0.000000
vn 0.000000 1.000000 0.000000
vn 0.000000 1.000000 0.000000
vn 0.000000 1.000000 0.000000
vn 0.000000 1.000000 0.000000
vn 0.000000 1.000000 0.000000
vn 0.000000 0.000002 -1.000000
vn 0.000000 0.000001 -1.000000
vn 0.000000 0.000001 -1.000000
vn 0.000000 0.000001 -1.000000
vn 0.000000 1.000000 0.000000
vn 0.000000 1.000000 0.000000
vn 0.000000 1.000000 0.000000
vn 0.000000 1.000000 0.000000
vn -0.000000 0.000000 1.000000
vn -0.000000 0.000000 1.000000
vn -0.000000 0.000000 1.000000
vn -0.000000 0.000000 1.000000
vn 0.000000 0.000002 -1.000000
vn 0.000000 0.000002 -1.000000
vn 0.000000 0.000002 -1.000000
vn 0.000000 0.000002 -1.000000
vn -0.024588 0.999698 -0.000068
vn 0.027737 0.999615 0.000100
vn -0.024615 0.999697 -0.000033
vn 0.028048 0.999607 -0.000033
vn -0.000000 0.000000 1.000000
vn -0.444848 0.895606 -0.000626
vn -0.446470 0.894798 -0.000832
vn -0.231026 0.972948 -0.000357
vn -0.231021 0.972949 -0.000505
vn 0.445602 0.895231 -0.000627
vn 0.444001 0.896026 -0.000817
vn 0.219808 0.975543 -0.000121
vn 0.222970 0.974825 -0.000436
vn -0.000000 0.000000 1.000000
vn -0.000000 0.000000 1.000000
vn 0.000000 0.000000 1.000000
vn -0.000000 0.000000 1.000000
vn -0.000000 0.000000 1.000000
vn -0.000000 0.000000 1.000000
vn -0.000000 0.000000 1.000000
vn -0.866026 0.000000 0.500000
vn -0.866026 0.000000 0.500000
vn -0.866025 -0.000001 -0.500000
vn -0.866025 -0.000002 -0.500000
vn 0.000000 -0.000000 -1.000000
vn 0.000000 -0.000001 -1.000000
vn 0.866026 -0.000000 -0.500000
vn 0.866026 0.000000 -0.500000
vn 0.866025 0.000000 0.500000
vn 0.866025 0.000000 0.500000
vn -0.866025 0.000006 -0.500000
vn -0.866025 0.000000 -0.500000
vn 0.000000 0.000001 -1.000000
vn 0.000000 0.000006 -1.000000
vn 0.000015 0.000000 -1.000000
vn -0.000000 0.000005 -1.000000
vn 0.000000 0.000000 -1.000000
vn 0.866026 -0.000001 -0.500000
vn 0.866026 -0.000012 -0.500000
vn 0.866025 0.000000 0.500000
vn 0.866025 0.000000 0.500000
vn -0.000000 0.000000 1.000000
vn -0.000000 0.000000 1.000000
vn -0.866025 0.000000 0.500000
vn -0.866026 0.000000 0.500000
vn 0.000000 0.000000 -1.000000
vn -0.000000 0.000000 1.000000
vn -0.000000 0.000000 1.000000
vn -0.000000 0.000000 1.000000
vn -0.000000 0.000000 1.000000
vn -0.000000 0.000000 1.000000
s 1
g large_low
usemtl initialShadingGroup
f 1/1/1 2/2/2 49/43/3
f 49/43/3 2/2/2 48/42/4
s 2
f 2/2/5 3/3/6 48/42/7
f 48/42/7 3/3/6 47/41/8
s 3
f 3/3/9 4/4/10 47/41/11
f 47/41/11 4/4/10 46/40/12
s 4
f 4/4/13 30/50/14 46/40/15
f 46/40/15 30/50/14 45/52/16
s 5
f 5/75/17 6/6/18 43/70/19
f 43/70/19 6/6/18 42/38/20
s 6
f 6/6/21 1/1/22 42/38/23
f 42/38/23 1/1/22 49/43/24
s 7
f 7/7/25 8/8/26 13/14/27
f 13/14/27 8/8/26 14/13/28
s 8
f 8/8/29 9/9/30 14/13/31
f 14/13/31 9/9/30 15/15/32
s 9
f 9/9/33 10/10/34 15/15/35
f 15/15/35 10/10/34 16/16/36
s 10
f 10/10/37 31/55/38 16/16/39
f 16/16/39 31/55/38 32/30/40
s 11
f 17/74/41 11/11/42 18/18/43
f 18/18/43 11/11/42 12/12/44
s 12
f 12/12/45 7/7/46 18/18/47
f 18/18/47 7/7/46 13/14/48
s 13
f 13/14/49 14/13/50 40/36/51
f 40/36/51 14/13/50 39/35/52
s 14
f 14/13/53 15/15/54 39/35/55
f 39/35/55 15/15/54 38/34/56
s 15
f 15/15/57 16/16/58 38/34/59
f 38/34/59 16/16/58 37/33/60
s 16
f 16/16/61 32/30/62 37/33/63
f 37/33/63 32/30/62 36/56/64
s 17
f 41/37/65 34/72/66 18/18/67
f 18/18/67 34/72/66 17/74/68
s 18
f 18/18/69 13/14/70 41/37/71
f 41/37/71 13/14/70 40/36/72
s off
f 19/66/73 20/69/74 25/25/75
f 20/69/76 21/68/77 25/25/78
f 21/68/79 22/67/80 25/25/81
s 19
f 22/67/82 33/31/83 25/25/84
f 23/64/85 25/25/84 29/63/86
f 33/31/83 29/63/86 25/25/84
s off
f 23/64/87 24/65/88 25/25/89
f 24/65/90 19/66/91 25/25/92
s 4
f 26/26/93 5/5/94 44/51/95
f 44/51/95 5/5/94 43/39/96
s 21
f 28/28/97 27/27/98 17/17/99
f 17/17/99 27/27/98 11/71/100
s 16
f 35/46/101 28/28/102 34/32/103
f 34/32/103 28/28/102 17/17/104
s 4
f 30/50/14 26/26/93 45/52/16
f 45/52/16 26/26/93 56/53/105
f 56/53/105 26/26/93 57/61/106
f 57/61/106 26/26/93 52/48/107
f 44/51/95 50/49/108 26/26/93
f 26/26/93 50/49/108 52/48/107
s 23
f 57/61/109 52/48/110 60/58/111
f 60/58/111 52/48/110 53/59/112
s 16
f 36/56/64 32/30/62 61/57/113
s 23
f 32/30/114 31/55/115 59/60/116
f 59/60/116 31/55/115 58/54/117
f 27/27/118 28/28/119 51/47/120
f 51/47/120 28/28/119 54/45/121
s 16
f 29/29/122 35/46/101 23/73/123
f 23/73/123 35/46/101 34/32/103
f 33/62/124 36/56/64 29/29/122
f 36/56/64 61/57/113 29/29/122
f 61/57/113 60/58/125 29/29/122
f 60/58/125 53/59/126 29/29/122
f 35/46/101 29/29/122 55/44/127
f 53/59/126 55/44/127 29/29/122
f 37/33/63 36/56/64 22/22/128
f 22/22/128 36/56/64 33/62/124
s 15
f 38/34/59 37/33/60 21/21/129
f 21/21/129 37/33/60 22/22/130
s 14
f 39/35/55 38/34/56 20/19/131
f 20/19/131 38/34/56 21/21/132
s 13
f 40/36/51 39/35/52 19/20/133
f 19/20/133 39/35/52 20/19/134
s 18
f 41/37/71 40/36/72 24/24/135
f 24/24/135 40/36/72 19/20/136
s 17
f 24/24/137 23/23/138 41/37/65
f 41/37/65 23/23/138 34/72/66
s 5
f 43/70/19 42/38/20 11/11/139
f 11/11/139 42/38/20 12/12/140
s 4
f 44/51/95 43/39/96 27/27/141
f 27/27/141 43/39/96 11/71/142
f 44/51/95 27/27/141 50/49/108
f 27/27/141 51/47/143 50/49/108
f 46/40/15 45/52/16 10/10/144
f 10/10/144 45/52/16 31/55/145
s 3
f 47/41/11 46/40/12 9/9/146
f 9/9/146 46/40/12 10/10/147
s 2
f 48/42/7 47/41/8 8/8/148
f 8/8/148 47/41/8 9/9/149
s 1
f 49/43/3 48/42/4 7/7/150
f 7/7/150 48/42/4 8/8/151
s 6
f 42/38/23 49/43/24 12/12/152
f 12/12/152 49/43/24 7/7/153
s 4
f 45/52/16 56/53/105 31/55/145
f 56/53/105 58/54/154 31/55/145
s 16
f 35/46/101 55/44/127 28/28/102
f 55/44/127 54/45/155 28/28/102
s 23
f 52/48/110 51/47/120 53/59/112
f 53/59/112 51/47/120 54/45/121
s 4
f 50/49/108 51/47/143 52/48/107
s 16
f 53/59/126 54/45/155 55/44/127
s 23
f 58/54/117 57/61/109 59/60/116
f 59/60/116 57/61/109 60/58/111
s 4
f 56/53/105 57/61/106 58/54/154
s 16
f 59/60/156 60/58/125 61/57/113
s off
f 59/60/157 61/57/158 32/30/159
