# This file uses centimeters as units for non-parametric coordinates.

mtllib Room UV.mtl
g default
v -429.679016 250.138290 -51.523430
v -429.679047 160.897263 -103.046700
v -615.510986 160.897369 -103.046654
v -615.510986 160.897369 -103.046654
v -615.510986 71.656425 -51.523373
v -615.510986 71.656425 -51.523373
v -429.780396 160.897263 -103.046730
v -429.780426 250.138275 -51.523396
v -429.780426 71.656288 -51.523418
v -429.780457 71.656303 51.523193
v -429.780457 160.897293 103.046532
v -429.780426 250.138321 51.523205
v -429.679016 250.138290 -51.523430
v -429.678986 250.138290 51.523201
v -429.679016 160.897308 103.046524
v -429.679077 71.656311 51.523205
v -429.679108 71.656296 -51.523403
v -429.679077 160.897278 -103.046722
v -615.510986 160.897385 -103.046654
v -615.510986 160.897385 -103.046654
v -615.510986 71.656433 -51.523354
v -615.510986 71.656433 -51.523354
v -429.780457 250.050446 51.573929
v -429.780426 160.809433 102.995789
v -429.780426 250.138275 -51.422016
v -429.780487 71.656303 51.421814
v -429.780457 71.744034 -51.574085
v -429.780365 160.985001 -102.996071
v 429.780487 0.000248 -248.133713
v 429.780548 279.150848 -248.133774
v 429.780334 0.000319 248.134033
v 429.780396 279.150940 248.133972
v -0.000200 0.000459 496.267731
v -0.000132 279.151062 496.267670
v -429.780579 0.000528 248.133728
v -429.780487 279.151123 248.133682
v -429.780365 0.000459 -248.133987
v -429.780304 279.151062 -248.134048
v 0.000044 0.000319 -496.267670
v 0.000113 279.150940 -496.267731
v -429.780396 188.556793 -87.077515
vt 0.536087 0.452867
vt 0.803800 0.452867
vt 0.732067 0.464353
vt 0.464353 0.464353
vt 0.464353 0.614942
vt 0.542621 0.551150
vt 0.653799 0.551150
vt 0.732067 0.614942
vt 0.464353 0.917000
vt 0.626005 0.503008
vt 0.732067 0.615382
vt 0.732067 0.765971
vt 0.000000 0.000000
vt 0.803800 0.000220
vt 0.464353 0.765971
vt 0.464353 0.615382
vt 0.536087 0.000220
vt 0.536087 0.150809
vt 0.803800 0.150809
vt 0.803800 0.302278
vt 0.401790 0.000220
vt 0.134077 0.000220
vt 0.000220 0.232067
vt 0.134077 0.463913
vt 0.401790 0.463913
vt 0.626005 0.599291
vt 0.570416 0.599291
vt 0.570416 0.503008
vt 0.536087 0.302278
vt 0.732067 0.917000
vt 0.732067 0.766411
vt 0.464353 0.766411
vt 0.536087 0.301838
vt 0.803800 0.301838
vt 0.803800 0.151249
vt 0.536087 0.151249
vt 0.535647 0.232067
vt 0.000000 0.000000
vt 0.000000 0.000000
vt 0.000000 0.000000
vt 0.000000 0.000000
vt 0.000000 0.000000
vt 0.000000 0.000000
vn -0.000106 -0.755838 0.654759
vn -0.000046 -1.000000 -0.000079
vn 0.609948 -0.686318 0.396146
vn -0.000100 -0.499975 0.866040
vn -0.000106 -0.755838 0.654759
vn 0.609948 -0.686318 0.396146
vn -0.000100 -0.499975 0.866040
vn -0.000100 -0.499975 0.866040
vn -1.000000 0.000000 -0.000000
vn -1.000000 0.000000 -0.000000
vn -1.000000 0.000000 -0.000000
vn -1.000000 0.000000 -0.000000
vn -0.500000 -0.000000 -0.866026
vn -0.500000 -0.000000 -0.866026
vn -0.500000 -0.000000 -0.866026
vn -0.500000 -0.000000 -0.866026
vn 0.500000 -0.000000 -0.866025
vn 0.500000 -0.000000 -0.866025
vn 0.500000 -0.000000 -0.866025
vn 0.500000 -0.000000 -0.866025
vn 1.000000 -0.000000 0.000000
vn 1.000000 -0.000000 0.000000
vn 1.000000 -0.000000 0.000000
vn 1.000000 -0.000000 0.000000
vn 1.000000 -0.000000 0.000000
vn 1.000000 -0.000000 0.000000
vn 1.000000 -0.000000 0.000000
vn 1.000000 -0.000000 0.000000
vn 0.500000 0.000000 0.866026
vn 0.500000 0.000000 0.866026
vn 0.500000 0.000000 0.866026
vn 0.500000 0.000000 0.866026
vn -0.500000 0.000000 0.866025
vn -0.500000 0.000000 0.866025
vn -0.500000 0.000000 0.866025
vn -0.500000 0.000000 0.866025
vn 0.000000 1.000000 -0.000000
vn 0.000000 1.000000 -0.000000
vn 0.000000 1.000000 -0.000000
vn 0.000000 1.000000 -0.000000
vn 0.000000 1.000000 -0.000000
vn 0.000000 1.000000 -0.000000
vn 1.000000 -0.000000 0.000000
vn 1.000000 -0.000000 0.000000
vn 1.000000 -0.000000 0.000000
vn 1.000000 -0.000000 0.000000
vn 1.000000 -0.000000 0.000000
vn 1.000000 -0.000000 0.000000
g Walls
usemtl WallsSG
f 1/13/1 25/38/2 8/39/3
f 2/40/4 1/13/5 8/41/6 41/42/7 28/43/8
f 29/15/9 31/12/10 32/11/11 30/16/12
f 31/14/13 33/17/14 34/18/15 32/19/16
f 33/20/17 35/29/18 36/1/19 34/2/20
f 35/3/21 37/4/22 38/5/23 7/6/24 9/28/25 10/10/26 11/7/27 36/8/28
f 37/9/29 39/30/30 40/31/31 38/32/32
f 39/33/33 29/34/34 30/35/35 40/36/36
f 29/37/37 39/21/38 37/22/39 35/23/40 33/24/41 31/25/42
f 38/5/43 36/8/44 11/7/45 12/26/46 8/27/47 7/6/48
