# This file uses centimeters as units for non-parametric coordinates.

mtllib average_low.mtl
g default
v -2.598584 0.004957 -0.477234
v -3.149646 0.004957 -0.477234
v -3.425178 0.004957 -0.000000
v -3.149647 0.004957 0.477234
v -2.598584 0.004957 0.477234
v -2.323052 0.004957 0.000000
v -2.598584 3.346958 -0.477234
v -3.149646 3.346958 -0.477234
v -3.425178 3.346958 -0.000000
v -3.149647 3.346958 0.477234
v -2.598584 3.346958 0.477234
v -2.323052 3.346958 0.000000
v -2.874115 -0.546183 0.000000
v -2.874115 4.135730 0.000000
vt 0.578125 0.020934
vt 0.421875 0.020934
vt 0.343750 0.156250
vt 0.421875 0.291566
vt 0.578125 0.291566
vt 0.656250 0.156250
vt 0.375000 0.312500
vt 0.416667 0.312500
vt 0.458333 0.312500
vt 0.500000 0.312500
vt 0.541667 0.312500
vt 0.583333 0.312500
vt 0.625000 0.312500
vt 0.375000 0.688440
vt 0.416667 0.688440
vt 0.458333 0.688440
vt 0.500000 0.688440
vt 0.541667 0.688440
vt 0.583333 0.688440
vt 0.625000 0.688440
vt 0.578125 0.708434
vt 0.421875 0.708434
vt 0.343750 0.843750
vt 0.421875 0.979066
vt 0.578125 0.979066
vt 0.656250 0.843750
vt 0.500000 0.150000
vt 0.500000 0.837500
vn 0.000000 0.000000 -1.000000
vn 0.000000 0.000000 -1.000000
vn 0.000000 0.000000 -1.000000
vn 0.000000 0.000000 -1.000000
vn -0.866025 0.000000 -0.500000
vn -0.866025 0.000000 -0.500000
vn -0.866025 0.000000 -0.500000
vn -0.866025 0.000000 -0.500000
vn -0.866025 0.000000 0.500000
vn -0.866025 0.000000 0.500000
vn -0.866025 0.000000 0.500000
vn -0.866025 0.000000 0.500000
vn -0.000000 0.000000 1.000000
vn -0.000000 0.000000 1.000000
vn -0.000000 0.000000 1.000000
vn -0.000000 0.000000 1.000000
vn 0.866025 0.000000 0.500000
vn 0.866025 0.000000 0.500000
vn 0.866025 0.000000 0.500000
vn 0.866025 0.000000 0.500000
vn 0.866025 0.000000 -0.500000
vn 0.866025 0.000000 -0.500000
vn 0.866025 0.000000 -0.500000
vn 0.866025 0.000000 -0.500000
vn 0.000000 -0.654601 -0.755974
vn 0.000000 -0.654601 -0.755974
vn 0.000000 -0.654601 -0.755974
vn -0.654693 -0.654601 -0.377987
vn -0.654693 -0.654601 -0.377987
vn -0.654693 -0.654601 -0.377987
vn -0.654693 -0.654601 0.377987
vn -0.654693 -0.654601 0.377987
vn -0.654693 -0.654601 0.377987
vn -0.000000 -0.654601 0.755974
vn -0.000000 -0.654601 0.755974
vn -0.000000 -0.654601 0.755974
vn 0.654693 -0.654601 0.377987
vn 0.654693 -0.654601 0.377987
vn 0.654693 -0.654601 0.377987
vn 0.654693 -0.654601 -0.377987
vn 0.654693 -0.654601 -0.377987
vn 0.654693 -0.654601 -0.377987
vn 0.000000 0.517659 -0.855587
vn 0.000000 0.517659 -0.855587
vn 0.000000 0.517659 -0.855587
vn -0.740960 0.517659 -0.427794
vn -0.740960 0.517659 -0.427794
vn -0.740960 0.517659 -0.427794
vn -0.740960 0.517659 0.427793
vn -0.740960 0.517659 0.427793
vn -0.740960 0.517659 0.427793
vn -0.000000 0.517659 0.855587
vn -0.000000 0.517659 0.855587
vn -0.000000 0.517659 0.855587
vn 0.740960 0.517659 0.427794
vn 0.740960 0.517659 0.427794
vn 0.740960 0.517659 0.427794
vn 0.740960 0.517659 -0.427793
vn 0.740960 0.517659 -0.427793
vn 0.740960 0.517659 -0.427793
s off
g average
usemtl initialShadingGroup
f 1/7/1 2/8/2 8/15/3 7/14/4
f 2/8/5 3/9/6 9/16/7 8/15/8
f 3/9/9 4/10/10 10/17/11 9/16/12
f 4/10/13 5/11/14 11/18/15 10/17/16
f 5/11/17 6/12/18 12/19/19 11/18/20
f 6/12/21 1/13/22 7/20/23 12/19/24
f 2/2/25 1/1/26 13/27/27
f 3/3/28 2/2/29 13/27/30
f 4/4/31 3/3/32 13/27/33
f 5/5/34 4/4/35 13/27/36
f 6/6/37 5/5/38 13/27/39
f 1/1/40 6/6/41 13/27/42
f 7/25/43 8/24/44 14/28/45
f 8/24/46 9/23/47 14/28/48
f 9/23/49 10/22/50 14/28/51
f 10/22/52 11/21/53 14/28/54
f 11/21/55 12/26/56 14/28/57
f 12/26/58 7/25/59 14/28/60
