# This file uses centimeters as units for non-parametric coordinates.

mtllib RoomOutside.mtl
g default
v -472.646918 274.397616 -56.675773
v -472.646951 176.232486 -113.351361
v -677.062085 176.232603 -113.351319
v -677.062085 176.232603 -113.351319
v -677.062085 78.067565 -56.675710
v -677.062085 78.067565 -56.675710
v -472.758435 176.232486 -113.351411
v -472.758469 274.397599 -56.675735
v -472.758469 78.067414 -56.675760
v -472.758502 78.067431 56.675513
v -472.758502 176.232519 113.351185
v -472.758469 274.397650 56.675525
v -472.646918 274.397616 -56.675773
v -472.646884 274.397616 56.675521
v -472.646918 176.232536 113.351176
v -472.646985 78.067439 56.675525
v -472.647018 78.067422 -56.675743
v -472.646985 176.232502 -113.351395
v -677.062085 176.232620 -113.351319
v -677.062085 176.232620 -113.351319
v -677.062085 78.067573 -56.675689
v -677.062085 78.067573 -56.675689
v -472.758502 274.300987 56.731322
v -472.758469 176.135873 113.295376
v -472.758469 274.397599 -56.564218
v -472.758536 78.067431 56.563995
v -472.758502 78.163934 -56.731494
v -472.758401 176.328997 -113.295678
v 472.758536 -0.754230 -272.947084
v 472.758603 306.311430 -272.947151
v 472.758368 -0.754153 272.947437
v 472.758435 306.311531 272.947369
v -0.000220 -0.753999 545.894504
v -0.000145 306.311665 545.894437
v -472.758636 -0.753922 272.947101
v -472.758536 306.311732 272.947050
v -472.758401 -0.753999 -272.947386
v -472.758334 306.311665 -272.947453
v 0.000048 -0.754153 -545.894437
v 0.000124 306.311531 -545.894504
v -472.758435 206.657969 -95.785266
vt 0.536087 0.452867
vt 0.803800 0.452867
vt 0.732067 0.464353
vt 0.464353 0.464353
vt 0.464353 0.614942
vt 0.542621 0.551150
vt 0.653799 0.551150
vt 0.732067 0.614942
vt 0.464353 0.917000
vt 0.626005 0.503008
vt 0.732067 0.615382
vt 0.732067 0.765971
vt 0.000000 0.000000
vt 0.803800 0.000220
vt 0.464353 0.765971
vt 0.464353 0.615382
vt 0.536087 0.000220
vt 0.536087 0.150809
vt 0.803800 0.150809
vt 0.803800 0.302278
vt 0.401790 0.000220
vt 0.134077 0.000220
vt 0.000220 0.232067
vt 0.134077 0.463913
vt 0.401790 0.463913
vt 0.626005 0.599291
vt 0.570416 0.599291
vt 0.570416 0.503008
vt 0.536087 0.302278
vt 0.732067 0.917000
vt 0.732067 0.766411
vt 0.464353 0.766411
vt 0.536087 0.301838
vt 0.803800 0.301838
vt 0.803800 0.151249
vt 0.536087 0.151249
vt 0.535647 0.232067
vt 0.000000 0.000000
vt 0.000000 0.000000
vt 0.000000 0.000000
vt 0.000000 0.000000
vt 0.000000 0.000000
vt 0.000000 0.000000
vn 0.000106 0.755838 -0.654759
vn -0.609948 0.686318 -0.396146
vn 0.000046 1.000000 0.000079
vn 0.000100 0.499975 -0.866040
vn 0.000100 0.499975 -0.866040
vn 0.000100 0.499975 -0.866040
vn -0.609948 0.686318 -0.396146
vn 0.000106 0.755838 -0.654759
vn 1.000000 -0.000000 0.000000
vn 1.000000 -0.000000 0.000000
vn 1.000000 -0.000000 0.000000
vn 1.000000 -0.000000 0.000000
vn 0.500000 0.000000 0.866026
vn 0.500000 0.000000 0.866026
vn 0.500000 0.000000 0.866026
vn 0.500000 0.000000 0.866026
vn -0.500000 0.000000 0.866025
vn -0.500000 0.000000 0.866025
vn -0.500000 0.000000 0.866025
vn -0.500000 0.000000 0.866025
vn -1.000000 0.000000 -0.000000
vn -1.000000 0.000000 -0.000000
vn -1.000000 0.000000 -0.000000
vn -1.000000 0.000000 -0.000000
vn -1.000000 0.000000 -0.000000
vn -1.000000 0.000000 -0.000000
vn -1.000000 0.000000 -0.000000
vn -1.000000 0.000000 -0.000000
vn -0.500000 -0.000000 -0.866026
vn -0.500000 -0.000000 -0.866026
vn -0.500000 -0.000000 -0.866026
vn -0.500000 -0.000000 -0.866026
vn 0.500000 -0.000000 -0.866025
vn 0.500000 -0.000000 -0.866025
vn 0.500000 -0.000000 -0.866025
vn 0.500000 -0.000000 -0.866025
vn -0.000000 -1.000000 0.000000
vn -0.000000 -1.000000 0.000000
vn -0.000000 -1.000000 0.000000
vn -0.000000 -1.000000 0.000000
vn -0.000000 -1.000000 0.000000
vn -0.000000 -1.000000 0.000000
vn -1.000000 0.000000 -0.000000
vn -1.000000 0.000000 -0.000000
vn -1.000000 0.000000 -0.000000
vn -1.000000 0.000000 -0.000000
vn -1.000000 0.000000 -0.000000
vn -1.000000 0.000000 -0.000000
g Walls2
usemtl WallsSG
f 1/13/1 8/39/2 25/38/3
f 2/40/4 28/43/5 41/42/6 8/41/7 1/13/8
f 29/15/9 30/16/10 32/11/11 31/12/12
f 31/14/13 32/19/14 34/18/15 33/17/16
f 33/20/17 34/2/18 36/1/19 35/29/20
f 35/3/21 36/8/22 11/7/23 10/10/24 9/28/25 7/6/26 38/5/27 37/4/28
f 37/9/29 38/32/30 40/31/31 39/30/32
f 39/33/33 40/36/34 30/35/35 29/34/36
f 29/37/37 31/25/38 33/24/39 35/23/40 37/22/41 39/21/42
f 38/5/43 7/6/44 8/27/45 12/26/46 11/7/47 36/8/48
